<?xml version="1.0" standalone="no"?>
<!DOCTYPE svg PUBLIC "-//W3C//DTD SVG 20010904//EN"
 "http://www.w3.org/TR/2001/REC-SVG-20010904/DTD/svg10.dtd">
<svg version="1.0" xmlns="http://www.w3.org/2000/svg"
 width="1308.000000pt" height="1308.000000pt" viewBox="0 0 1308.000000 1308.000000"
 preserveAspectRatio="xMidYMid meet">
<metadata>
Created by potrace 1.14, written by Peter Selinger 2001-2017
</metadata>
<g transform="translate(0.000000,1308.000000) scale(0.100000,-0.100000)"
fill="#000000" stroke="none">
<path d="M12377 8583 c-2 -1 -61 -5 -132 -8 -72 -3 -164 -8 -205 -11 -41 -2
-113 -7 -160 -9 -47 -3 -125 -7 -175 -10 -220 -13 -366 -25 -377 -31 -4 -3 -8
0 -8 6 0 6 -4 9 -9 5 -6 -3 -38 -8 -73 -10 -35 -2 -94 -7 -133 -10 -96 -6
-240 -16 -300 -20 -27 -2 -84 -6 -125 -9 -41 -3 -109 -8 -150 -11 -41 -3 -104
-8 -140 -10 -36 -3 -103 -7 -150 -10 -47 -3 -105 -7 -130 -9 -44 -4 -171 -13
-302 -22 -38 -2 -98 -6 -135 -9 -38 -2 -104 -7 -148 -10 -44 -3 -114 -8 -155
-11 -103 -7 -214 -14 -285 -19 -56 -3 -131 -8 -295 -20 -36 -2 -101 -7 -145
-10 -44 -2 -118 -8 -165 -11 -47 -3 -110 -8 -140 -9 -30 -2 -93 -6 -140 -10
-103 -8 -188 -13 -300 -20 -47 -3 -105 -7 -130 -9 -25 -3 -97 -8 -160 -12
-193 -11 -289 -17 -445 -29 -33 -2 -100 -7 -150 -10 -49 -3 -117 -8 -150 -10
-33 -3 -98 -8 -145 -10 -47 -3 -112 -7 -145 -10 -33 -2 -96 -6 -140 -9 -44 -3
-119 -8 -165 -11 -47 -3 -114 -7 -150 -10 -36 -2 -94 -6 -130 -9 -36 -3 -108
-8 -160 -11 -52 -3 -126 -7 -165 -10 -82 -7 -168 -13 -285 -20 -256 -16 -394
-25 -457 -30 -29 -3 -98 -7 -155 -10 -57 -3 -125 -7 -153 -10 -27 -2 -90 -7
-140 -10 -49 -3 -117 -8 -150 -11 -33 -2 -100 -6 -150 -9 -49 -3 -117 -7 -150
-9 -33 -3 -103 -8 -155 -11 -52 -3 -124 -8 -160 -11 -36 -3 -94 -7 -130 -9
-36 -2 -101 -6 -145 -9 -44 -3 -118 -8 -165 -11 -154 -10 -224 -15 -290 -19
-100 -7 -321 -21 -475 -30 -49 -3 -115 -8 -145 -10 -30 -3 -102 -8 -160 -11
-58 -3 -127 -8 -155 -10 -27 -3 -93 -7 -145 -10 -110 -6 -193 -12 -305 -20
-44 -3 -110 -8 -147 -11 -110 -7 -199 -13 -263 -19 -33 -3 -87 -7 -120 -10
-86 -6 -158 -16 -167 -21 -4 -3 -7 -15 -7 -27 1 -12 -2 -71 -5 -132 -7 -116
-11 -183 -21 -385 -6 -127 -10 -214 -20 -395 -3 -55 -8 -138 -10 -185 -3 -47
-7 -125 -10 -175 -2 -49 -7 -144 -10 -210 -3 -66 -8 -154 -10 -195 -7 -99 -15
-242 -20 -365 -3 -55 -7 -145 -10 -200 -3 -55 -7 -140 -10 -190 -2 -49 -6
-135 -9 -190 -10 -181 -17 -308 -22 -435 -2 -69 -6 -159 -9 -200 -2 -41 -6
-138 -10 -215 -3 -77 -8 -178 -10 -225 -2 -47 -7 -181 -10 -297 l-7 -212 74 4
c40 2 111 7 158 10 47 3 119 8 160 10 41 3 109 7 150 10 92 7 209 14 315 20
44 3 118 8 165 11 47 3 108 7 135 9 53 3 185 12 295 20 36 2 108 7 160 10 52
3 122 7 155 10 143 11 228 17 445 30 88 5 177 11 290 20 36 3 106 7 155 10
113 7 196 13 310 20 50 4 110 8 135 9 25 2 95 7 155 11 61 4 126 8 146 10 20
1 41 5 47 9 7 4 12 2 12 -4 0 -6 4 -9 9 -6 5 3 44 8 87 11 78 5 151 10 289 20
39 3 106 7 150 10 44 3 116 8 160 11 44 3 105 7 135 9 30 2 100 6 155 10 55 4
123 9 150 10 55 3 202 13 280 20 71 5 240 17 305 20 73 4 231 15 300 20 30 3
96 7 145 10 144 9 235 14 310 20 39 2 108 7 155 10 47 3 112 8 145 10 33 3
103 7 155 10 52 3 120 8 150 10 30 3 96 7 145 10 50 3 122 8 160 10 159 12
214 15 295 20 47 3 108 7 135 9 28 3 100 8 160 11 61 4 130 8 155 11 25 2 88
6 140 9 52 3 120 7 150 10 30 2 102 7 160 11 58 3 125 8 150 9 25 2 88 6 140
9 52 4 120 8 150 11 30 2 100 7 155 10 55 3 123 8 150 10 28 2 95 7 150 10
137 9 194 13 310 20 55 4 125 9 155 10 30 2 98 6 150 10 52 3 124 8 160 10
244 15 310 20 435 30 33 3 98 7 145 9 47 3 114 7 150 10 36 4 103 8 150 11 47
3 112 7 145 10 33 2 103 7 155 10 52 3 122 7 155 10 33 2 98 7 145 10 47 3
110 7 140 10 30 2 100 7 155 10 55 3 127 7 160 10 33 2 103 7 155 10 116 7
149 11 156 18 3 3 8 47 10 99 2 51 6 134 9 183 10 180 18 338 30 565 2 52 7
140 10 195 3 55 7 145 10 200 5 102 11 213 20 365 12 214 18 351 19 422 1 43
3 78 6 78 3 0 5 24 6 53 2 119 21 479 30 577 3 30 4 71 4 90 -1 19 -2 40 -1
45 2 31 12 191 15 260 9 189 17 344 22 400 2 33 6 112 9 175 2 63 7 153 10
200 2 46 7 133 10 192 l6 108 -28 2 c-46 2 -464 4 -466 1z m-109 -772 l42 -1
-4 -82 c-3 -46 -8 -130 -11 -188 -3 -58 -7 -148 -10 -200 -3 -52 -7 -129 -10
-170 -3 -41 -7 -124 -10 -185 -5 -121 -14 -265 -21 -335 -2 -25 -6 -74 -9
-110 -8 -103 -18 -160 -36 -202 -9 -22 -19 -28 -43 -29 -17 -1 -47 -3 -66 -5
-129 -12 -363 -27 -397 -25 -13 0 -24 -5 -24 -12 -2 -16 -5 -61 -13 -192 -4
-60 -9 -135 -11 -165 -2 -30 -7 -109 -11 -175 -4 -66 -8 -133 -9 -150 -1 -16
-6 -77 -9 -135 -4 -58 -9 -132 -12 -165 -2 -33 -6 -89 -9 -125 -2 -36 -7 -105
-11 -155 -6 -82 -10 -144 -13 -202 -1 -14 -7 -22 -18 -21 -10 0 -54 -3 -98 -7
-44 -4 -98 -8 -120 -10 -22 -2 -69 -6 -105 -9 -77 -7 -180 -15 -270 -21 -36
-3 -90 -7 -120 -10 -30 -2 -91 -7 -135 -10 -44 -3 -105 -8 -135 -10 -141 -11
-295 -19 -395 -19 l-110 -1 1 40 c1 22 5 99 8 170 9 173 15 292 20 395 3 47 8
141 12 210 4 69 7 155 8 192 0 38 3 68 6 68 3 0 6 33 6 73 1 39 4 131 7 202
l6 130 -57 -2 c-31 -2 -124 -5 -207 -8 -82 -3 -201 -7 -263 -10 l-113 -4 6
127 c7 128 9 172 19 362 4 58 8 148 11 200 12 232 15 299 20 360 3 36 8 94 10
130 4 56 8 99 20 195 7 64 19 106 34 119 15 13 42 17 236 31 33 3 92 7 130 10
39 4 97 8 130 10 33 3 92 7 130 10 85 7 182 14 295 20 47 2 114 7 150 10 36 2
97 7 135 9 39 3 120 8 180 12 61 4 138 8 172 8 35 1 63 3 63 6 0 3 21 5 48 6
50 1 219 11 342 20 76 5 175 10 354 19 55 3 100 6 102 7 1 2 33 2 71 1 37 -1
87 -2 111 -2z m-2917 -188 c3 -71 -5 -435 -16 -693 -15 -341 -21 -486 -41
-860 -4 -69 -7 -149 -8 -177 0 -29 -3 -53 -6 -53 -3 0 -5 -37 -6 -83 -1 -80
-10 -291 -19 -451 -3 -45 -7 -121 -10 -171 -2 -49 -5 -90 -5 -90 -1 0 -3 -45
-5 -100 -2 -55 -7 -145 -10 -200 -4 -55 -7 -106 -8 -112 0 -7 -12 -13 -26 -13
-14 -1 -55 -3 -91 -6 -36 -2 -105 -7 -155 -10 -94 -6 -122 -7 -295 -19 -58 -4
-130 -8 -160 -10 -171 -9 -359 -21 -475 -30 -80 -6 -226 -17 -278 -20 -27 -2
-51 -5 -54 -8 -3 -3 -11 -3 -18 -1 -13 6 -13 28 0 259 3 61 8 157 11 215 2 58
6 137 8 175 2 39 7 124 11 190 3 66 8 156 10 200 3 44 7 127 10 185 7 140 21
401 31 570 3 52 7 127 9 165 7 137 15 261 20 320 2 33 7 105 10 160 3 55 8
123 10 150 3 28 7 82 10 120 3 39 8 90 10 115 3 25 8 68 10 95 6 62 10 83 16
89 2 2 51 7 109 10 58 3 132 8 165 11 33 2 94 7 135 10 41 4 99 8 128 10 161
11 296 22 387 31 28 2 86 7 130 9 44 3 103 7 130 9 28 3 91 8 140 12 50 3 91
7 92 8 1 0 22 2 47 4 38 2 46 -1 47 -15z m-1805 -140 c-3 -76 -8 -210 -12
-298 -4 -88 -8 -193 -8 -232 -1 -40 -3 -73 -6 -73 -3 0 -5 -37 -6 -83 -1 -83
-11 -330 -19 -487 -3 -47 -7 -137 -10 -200 -3 -63 -7 -158 -10 -210 -12 -262
-15 -333 -20 -425 -3 -55 -8 -140 -11 -190 -3 -49 -7 -130 -9 -180 -2 -49 -6
-137 -10 -195 -3 -58 -8 -141 -10 -185 -8 -143 -15 -199 -28 -207 -6 -4 -30
-8 -52 -9 -22 0 -47 -2 -55 -3 -8 -2 -60 -7 -115 -11 -55 -4 -113 -9 -130 -10
-83 -8 -179 -15 -255 -20 -47 -3 -112 -7 -145 -10 -33 -3 -89 -8 -125 -10 -36
-2 -99 -7 -140 -10 -234 -16 -314 -21 -455 -30 -49 -3 -112 -7 -140 -9 -101
-7 -281 -19 -320 -21 -22 -1 -83 -5 -135 -9 -52 -4 -126 -9 -165 -11 -38 -2
-101 -7 -140 -10 -38 -2 -104 -7 -145 -10 -41 -3 -102 -8 -135 -11 -33 -2 -82
-6 -110 -8 -27 -2 -89 -7 -137 -11 -71 -5 -87 -4 -83 7 2 7 7 92 10 188 10
286 13 386 20 565 10 260 13 336 19 515 7 193 24 588 27 655 1 6 0 24 0 40 -1
17 0 62 3 100 2 39 7 136 11 217 11 269 22 488 31 653 3 44 6 99 7 122 l1 42
46 -26 c25 -14 47 -29 50 -33 3 -3 12 -9 20 -13 8 -4 49 -30 90 -59 41 -29
127 -89 190 -132 63 -44 117 -82 120 -85 3 -3 12 -10 21 -16 21 -13 136 -93
244 -170 326 -233 653 -455 671 -455 10 0 222 144 234 160 3 3 21 17 40 30 19
13 37 27 40 30 3 3 21 17 40 30 19 14 42 30 50 37 8 7 103 80 210 164 200 155
249 193 281 219 10 8 32 26 50 40 18 14 38 31 45 38 7 6 15 12 18 12 4 0 19
11 34 24 15 13 68 56 117 95 50 39 95 74 100 78 6 5 44 35 85 68 41 32 77 63
78 67 2 4 8 8 13 8 5 0 22 11 37 24 64 56 87 75 90 76 2 0 1 -62 -2 -137z
m-3156 -195 c0 -8 -37 -65 -50 -78 -3 -3 -23 -30 -45 -60 -40 -55 -364 -482
-388 -510 -7 -8 -35 -44 -62 -80 -27 -36 -53 -66 -57 -68 -4 -2 -8 -10 -8 -17
0 -7 -4 -15 -9 -17 -4 -1 -63 -77 -130 -168 -66 -91 -131 -178 -143 -194 -42
-54 -213 -312 -234 -351 -20 -39 -22 -85 -3 -85 5 0 9 -4 9 -10 0 -8 82 -130
125 -185 19 -25 76 -107 112 -160 14 -22 29 -42 33 -45 3 -3 22 -27 40 -55 19
-27 40 -56 47 -65 9 -12 207 -278 277 -375 40 -55 126 -171 133 -180 5 -5 41
-57 82 -115 41 -58 83 -115 93 -126 22 -24 15 -33 -29 -39 -16 -2 -41 -6 -58
-9 -41 -7 -185 -21 -319 -31 -43 -3 -92 -7 -110 -10 -17 -2 -74 -7 -126 -11
-52 -3 -115 -8 -140 -10 -25 -1 -79 -5 -120 -8 -193 -14 -231 -16 -315 -22
-49 -3 -110 -7 -135 -9 -25 -1 -94 -5 -155 -9 -60 -4 -132 -9 -160 -11 -47 -4
-197 -14 -310 -20 -27 -1 -90 -6 -140 -9 -49 -4 -124 -9 -165 -12 -188 -11
-325 -21 -416 -29 -33 -3 -95 -8 -137 -10 l-77 -5 5 103 c7 128 14 265 21 382
2 50 7 131 9 180 8 158 15 308 20 390 3 44 7 130 10 190 3 61 8 151 11 200 2
50 7 126 9 170 5 108 14 281 20 390 3 50 7 131 9 180 3 50 8 144 12 210 3 66
8 149 9 185 22 459 18 422 53 425 9 1 51 5 92 9 41 4 102 9 135 11 33 3 92 7
130 10 39 3 99 8 135 10 36 3 101 7 145 11 96 7 139 10 265 19 52 3 118 8 145
10 28 2 93 7 145 10 98 6 162 10 310 21 47 3 119 8 160 10 41 2 104 6 140 9
36 2 103 7 150 10 47 3 112 7 145 10 135 10 184 14 265 20 47 4 108 8 135 11
28 2 93 7 145 10 52 3 96 7 97 8 8 7 163 2 163 -6z"/>
</g>
</svg>
