<svg xmlns="http://www.w3.org/2000/svg" xmlns:xlink="http://www.w3.org/1999/xlink" width="1080" zoomAndPan="magnify" viewBox="0 0 810 809.999993" height="1080" preserveAspectRatio="xMidYMid meet" version="1.0"><defs><clipPath id="5a523108ee"><path d="M 51 279 L 751 279 L 751 543 L 51 543 Z M 51 279 " clip-rule="nonzero"/></clipPath><clipPath id="506e43b44c"><path d="M 50.132812 193.988281 L 789.980469 256.664062 L 759.53125 616.125 L 19.679688 553.453125 Z M 50.132812 193.988281 " clip-rule="nonzero"/></clipPath><clipPath id="5ded49bdd3"><path d="M 50.132812 193.988281 L 789.980469 256.664062 L 759.53125 616.125 L 19.679688 553.453125 Z M 50.132812 193.988281 " clip-rule="nonzero"/></clipPath></defs><rect x="-81" width="972" fill="#ffffff" y="-80.999999" height="971.999992" fill-opacity="1"/><rect x="-81" width="972" fill="#14171b" y="-80.999999" height="971.999992" fill-opacity="1"/><g clip-path="url(#5a523108ee)"><g clip-path="url(#506e43b44c)"><g clip-path="url(#5ded49bdd3)"><path fill="#ffffff" d="M 645.039062 281.957031 C 568.789062 285.058594 233.820312 296.757812 130.480469 300.074219 C 103.558594 300.980469 79.136719 301.871094 76.371094 302.320312 L 71.097656 302.785156 L 60.949219 422.605469 C 55.355469 488.621094 51.25 542.464844 51.925781 542.519531 C 53.28125 542.636719 153.894531 539.320312 337.136719 532.753906 C 419.957031 529.980469 542.503906 525.558594 609.113281 523.460938 L 730.734375 519.191406 L 740.847656 399.820312 L 750.9375 280.679688 L 738.042969 279.816406 C 730.796875 279.429688 689.097656 280.222656 645.039062 281.957031 Z M 714.199219 365.230469 C 711.519531 396.882812 709.941406 407.449219 707.851562 407.957031 C 706.230469 408.273438 698.925781 408.566406 691.847656 408.878906 L 678.632812 409.125 L 674.597656 451.363281 L 670.339844 493.582031 L 632.648438 495.398438 C 611.863281 496.371094 592.695312 497.023438 589.984375 496.792969 L 584.769531 496.578125 L 588.332031 454.53125 L 591.875 412.703125 L 573.671875 412.757812 L 555.464844 412.808594 L 559.046875 370.53125 C 561.746094 338.65625 563.324219 328.085938 565.621094 327.828125 C 570.03125 326.832031 699.839844 322.574219 709.367188 322.925781 L 717.742188 323.40625 Z M 544.078125 412.980469 L 536.835938 498.4375 L 502.15625 499.601562 C 483.011719 500.027344 462.921875 500.832031 457.667969 501.070312 L 447.839844 501.601562 L 455.0625 416.371094 C 459.027344 369.574219 462.941406 331.421875 464.089844 331.292969 C 465.671875 331.425781 546.742188 327.820312 549.714844 327.617188 C 550.617188 327.695312 548.058594 365.957031 544.078125 412.980469 Z M 433.554688 501.074219 C 433.0625 501.488281 398.347656 503.101562 356.363281 504.554688 C 314.398438 505.78125 276.496094 507.351562 271.921875 507.648438 L 263.695312 508.089844 L 269.75 420.484375 C 273.152344 372.269531 276.296875 332.460938 276.789062 332.046875 C 277.050781 331.617188 294.824219 344.734375 316.207031 360.890625 C 337.566406 377.273438 356 390.675781 357.128906 390.769531 C 358.257812 390.867188 379.0625 376.234375 403.5625 358.269531 L 447.980469 325.375 L 441.25 412.925781 C 437.394531 461.097656 434.023438 500.886719 433.554688 501.074219 Z M 268.25 338.839844 C 268.191406 339.519531 252.6875 358.699219 233.679688 381.679688 C 214.140625 405.527344 199.75 425.027344 200.273438 426.894531 C 200.796875 428.757812 212.894531 447.089844 227.078125 467.644531 C 241.488281 488.21875 253.191406 505.832031 253.566406 506.777344 C 253.699219 507.925781 220.335938 509.652344 179.273438 510.957031 C 138.210938 512.261719 100.785156 513.644531 95.984375 513.921875 L 87.304688 514.324219 L 94.503906 429.316406 L 101.707031 344.3125 L 109.257812 343.8125 C 113.152344 343.460938 139.171875 342.476562 166.792969 341.402344 C 194.390625 340.550781 227.246094 339.464844 239.820312 338.707031 C 268.589844 337.503906 268.363281 337.484375 268.25 338.839844 Z M 268.25 338.839844 " fill-opacity="1" fill-rule="nonzero"/></g></g></g></svg>