<svg xmlns="http://www.w3.org/2000/svg" xmlns:xlink="http://www.w3.org/1999/xlink" width="1080" zoomAndPan="magnify" viewBox="0 0 810 809.999993" height="1080" preserveAspectRatio="xMidYMid meet" version="1.0"><rect x="-81" width="972" fill="#ffffff" y="-80.999999" height="971.999992" fill-opacity="1"/><rect x="-81" width="972" fill="#14171b" y="-80.999999" height="971.999992" fill-opacity="1"/><path fill="#ffffff" d="M 182.105469 404.460938 L 182.105469 467.019531 L 247.484375 467.019531 L 247.484375 439.417969 L 210.652344 439.417969 L 210.652344 417.339844 L 229.988281 417.339844 L 229.988281 389.738281 L 210.652344 389.738281 L 210.652344 369.5 L 247.484375 369.5 L 247.484375 341.898438 L 182.105469 341.898438 Z M 182.105469 404.460938 " fill-opacity="1" fill-rule="nonzero"/><path fill="#ffffff" d="M 304.390625 342.359375 C 303.929688 342.820312 303.652344 349.074219 303.652344 356.34375 L 303.652344 369.5 L 325.570312 369.5 C 355.125 369.5 360.835938 370.605469 367.925781 377.6875 C 374.921875 384.679688 378.515625 399.03125 376.488281 412.28125 C 375.109375 421.480469 372.621094 427.183594 367.832031 431.875 C 360.835938 438.777344 360.007812 438.867188 330.171875 439.234375 L 303.652344 439.511719 L 303.652344 467.203125 L 332.015625 466.742188 C 357.796875 466.375 360.925781 466.191406 367.1875 464.351562 C 386.527344 458.648438 399.140625 446.320312 404.390625 428.289062 C 408.164062 415.039062 408.164062 395.167969 404.390625 382.378906 C 398.679688 362.96875 383.488281 348.246094 364.886719 344.199219 C 357.796875 342.636719 305.585938 341.070312 304.390625 342.359375 Z M 304.390625 342.359375 " fill-opacity="1" fill-rule="nonzero"/><path fill="#ffffff" d="M 431.644531 348.617188 L 431.644531 355.699219 L 439.933594 355.699219 L 439.933594 399.859375 L 453.746094 399.859375 L 453.746094 355.882812 L 462.585938 355.238281 C 478.515625 354.042969 484.132812 356.066406 484.132812 363.242188 C 484.132812 365.820312 483.488281 367.476562 481.828125 369.039062 C 479.804688 371.15625 478.882812 371.339844 471.609375 371.339844 C 465.347656 371.339844 463.78125 371.617188 464.148438 372.535156 C 464.425781 373.273438 468.660156 379.621094 473.542969 386.796875 L 482.472656 399.859375 L 490.207031 399.859375 C 494.445312 399.859375 497.945312 399.675781 497.945312 399.492188 C 497.945312 399.308594 494.8125 395.074219 491.039062 390.109375 L 484.039062 381.09375 L 488.183594 378.976562 C 497.945312 374.007812 500.523438 360.390625 493.707031 349.902344 C 489.5625 343.554688 487.261719 343.003906 457.703125 342.269531 L 431.644531 341.625 Z M 431.644531 348.617188 " fill-opacity="1" fill-rule="nonzero"/><path fill="#ffffff" d="M 541.039062 343.464844 C 539.289062 345.578125 504.390625 398.664062 504.390625 399.398438 C 504.390625 399.675781 507.980469 399.859375 512.492188 399.859375 L 520.503906 399.859375 L 530.632812 382.289062 L 540.761719 364.714844 L 541.039062 382.289062 L 541.222656 399.859375 L 555.953125 399.859375 L 555.769531 371.0625 L 555.492188 342.359375 L 548.957031 342.082031 C 543.707031 341.898438 542.234375 342.082031 541.039062 343.464844 Z M 541.039062 343.464844 " fill-opacity="1" fill-rule="nonzero"/><path fill="#ffffff" d="M 559.363281 342.453125 C 558.992188 342.820312 558.71875 345.765625 558.71875 348.984375 L 558.71875 354.78125 L 566.082031 354.78125 L 566.082031 386.886719 L 562.675781 387.164062 L 559.175781 387.441406 L 558.902344 393.605469 L 558.625 399.859375 L 588.273438 399.859375 L 588 393.605469 L 587.722656 387.441406 L 584.316406 387.164062 L 580.816406 386.886719 L 580.816406 354.78125 L 588.273438 354.78125 L 588 348.523438 L 587.722656 342.359375 L 573.816406 342.082031 C 566.265625 341.992188 559.730469 342.175781 559.363281 342.453125 Z M 559.363281 342.453125 " fill-opacity="1" fill-rule="nonzero"/><path fill="#ffffff" d="M 642.234375 342.542969 C 641.867188 342.820312 641.589844 345.765625 641.589844 348.984375 L 641.589844 354.78125 L 648.957031 354.78125 L 648.957031 386.886719 L 645.550781 387.164062 L 642.050781 387.441406 L 641.773438 393.605469 L 641.496094 399.859375 L 670.132812 399.859375 L 670.132812 386.980469 L 662.769531 386.980469 L 662.953125 371.0625 L 663.226562 355.238281 L 666.726562 354.964844 L 670.132812 354.6875 L 670.132812 341.898438 L 656.507812 341.898438 C 648.957031 341.898438 642.511719 342.175781 642.234375 342.542969 Z M 642.234375 342.542969 " fill-opacity="1" fill-rule="nonzero"/><path fill="#ffffff" d="M 747.851562 342.820312 C 734.589844 345.488281 725.660156 355.425781 724.644531 368.671875 C 723.449219 385.691406 735.878906 399.859375 751.902344 399.859375 C 755.308594 399.859375 758.992188 399.582031 760.191406 399.308594 C 761.664062 398.847656 764.792969 394.433594 771.148438 383.851562 C 776.027344 375.753906 780.171875 368.765625 780.355469 368.304688 C 780.539062 367.9375 773.632812 367.660156 764.976562 367.660156 L 749.230469 367.660156 L 749.507812 372.902344 L 749.785156 378.238281 L 755.03125 378.515625 L 760.375 378.792969 L 757.335938 383.300781 C 754.113281 388.359375 751.535156 389.097656 746.652344 386.519531 C 736.0625 381.09375 734.960938 364.347656 744.535156 357.078125 C 746.378906 355.699219 748.496094 355.238281 752.730469 355.238281 C 758.070312 355.238281 758.625 355.425781 761.9375 358.644531 C 765.4375 362.046875 765.621094 362.140625 772.621094 362.140625 C 776.488281 362.140625 779.710938 361.863281 779.710938 361.402344 C 779.710938 359.5625 773.816406 350.914062 771.148438 348.890625 C 764.425781 343.738281 755.21875 341.347656 747.851562 342.820312 Z M 747.851562 342.820312 " fill-opacity="1" fill-rule="nonzero"/><path fill="#ffffff" d="M 31.09375 356.527344 L 31.09375 370.328125 L 55.773438 370.605469 L 80.542969 370.878906 L 84.226562 373.363281 C 88.828125 376.398438 90.945312 380.722656 90.945312 387.347656 C 90.945312 396.914062 86.617188 402.527344 78.054688 404.367188 C 75.476562 404.917969 67.191406 405.378906 59.640625 405.378906 L 45.917969 405.378906 L 66.269531 435.003906 C 77.410156 451.378906 87.078125 465.273438 87.632812 465.914062 C 88.460938 466.742188 92.878906 467.019531 105.496094 466.835938 L 122.164062 466.558594 L 106.601562 445.953125 C 98.035156 434.636719 91.222656 425.066406 91.5 424.609375 C 91.777344 424.148438 92.605469 423.78125 93.339844 423.78125 C 96.839844 423.78125 104.941406 418.8125 109.640625 413.660156 C 117.835938 404.828125 121.515625 392.039062 119.582031 379.160156 C 117.097656 362.140625 108.441406 350.546875 94.445312 345.488281 C 89.011719 343.554688 87.078125 343.371094 59.914062 343.003906 L 31.09375 342.636719 Z M 31.09375 356.527344 " fill-opacity="1" fill-rule="nonzero"/><path fill="#ffffff" d="M 590.945312 371.339844 L 590.945312 399.859375 L 604.941406 399.859375 L 604.574219 382.839844 C 604.480469 373.457031 604.480469 365.820312 604.757812 365.820312 C 605.035156 365.820312 609.820312 373.457031 615.347656 382.839844 L 625.476562 399.769531 L 631.738281 399.859375 L 637.90625 399.859375 L 637.90625 342.820312 L 616.726562 342.820312 L 616.726562 354.6875 L 620.6875 354.964844 L 624.554688 355.238281 L 624.832031 367.199219 L 625.015625 379.160156 L 614.242188 360.945312 L 603.46875 342.820312 L 590.945312 342.820312 Z M 590.945312 371.339844 " fill-opacity="1" fill-rule="nonzero"/><path fill="#ffffff" d="M 673.816406 371.339844 L 673.816406 399.859375 L 687.628906 399.859375 L 686.984375 382.839844 C 686.617188 372.8125 686.800781 365.820312 687.261719 365.820312 C 687.722656 365.820312 692.601562 373.546875 698.128906 382.839844 L 708.257812 399.859375 L 720.777344 399.859375 L 720.777344 342.820312 L 699.601562 342.820312 L 699.601562 354.78125 L 703.285156 354.78125 C 705.492188 354.78125 707.242188 355.238281 707.519531 355.976562 C 707.703125 356.621094 707.796875 362.046875 707.703125 368.027344 L 707.425781 378.882812 L 696.839844 360.851562 L 686.25 342.820312 L 673.816406 342.820312 Z M 673.816406 371.339844 " fill-opacity="1" fill-rule="nonzero"/><path fill="#ffffff" d="M 431.183594 420.101562 C 430.816406 420.742188 489.195312 421.019531 605.585938 421.019531 C 721.699219 421.019531 780.632812 420.742188 780.632812 420.101562 C 780.632812 418.8125 432.015625 418.8125 431.183594 420.101562 Z M 431.183594 420.101562 " fill-opacity="1" fill-rule="nonzero"/><path fill="#ffffff" d="M 436.15625 437.121094 C 427.6875 441.8125 434.039062 454.414062 443.339844 451.289062 C 445.917969 450.460938 448.21875 448.160156 448.21875 446.410156 C 448.21875 445.308594 444.722656 445.953125 443.617188 447.238281 C 442.234375 448.894531 438.917969 449.078125 437.355469 447.515625 C 435.972656 446.136719 435.972656 441.902344 437.355469 440.523438 C 438.917969 438.960938 442.234375 439.144531 443.617188 440.800781 C 444.996094 442.546875 448.21875 442.640625 448.21875 440.984375 C 448.21875 437.210938 440.394531 434.726562 436.15625 437.121094 Z M 436.15625 437.121094 " fill-opacity="1" fill-rule="nonzero"/><path fill="#ffffff" d="M 452.730469 438.40625 C 448.496094 442.730469 449.324219 448.160156 454.757812 451.011719 C 460.007812 453.679688 466.636719 450 466.636719 444.386719 C 466.636719 440.15625 465.808594 438.59375 462.859375 437.121094 C 458.902344 435.003906 455.769531 435.464844 452.730469 438.40625 Z M 461.847656 440.523438 C 462.492188 441.167969 462.953125 442.730469 462.953125 444.019531 C 462.953125 448.4375 458.808594 450.183594 455.402344 447.054688 C 453.5625 445.398438 453.285156 443.742188 454.664062 441.167969 C 455.769531 439.144531 460.097656 438.777344 461.847656 440.523438 Z M 461.847656 440.523438 " fill-opacity="1" fill-rule="nonzero"/><path fill="#ffffff" d="M 468.476562 444.019531 C 468.476562 451.65625 468.570312 452.300781 470.320312 452.300781 C 471.976562 452.300781 472.160156 451.65625 472.160156 446.964844 L 472.160156 441.71875 L 475.660156 446.964844 C 477.59375 450.09375 479.710938 452.300781 480.722656 452.300781 C 482.105469 452.300781 482.289062 451.289062 482.289062 444.019531 L 482.289062 435.738281 L 479.066406 435.738281 C 476.488281 435.738281 475.84375 436.109375 475.84375 437.578125 C 475.84375 438.59375 476.488281 439.417969 477.226562 439.417969 C 478.238281 439.417969 478.605469 440.433594 478.605469 442.824219 L 478.515625 446.320312 L 475.199219 440.984375 C 473.082031 437.671875 471.238281 435.738281 470.226562 435.738281 C 468.660156 435.738281 468.476562 436.566406 468.476562 444.019531 Z M 468.476562 444.019531 " fill-opacity="1" fill-rule="nonzero"/><path fill="#ffffff" d="M 488.273438 436.84375 C 485.328125 438.40625 484.132812 440.433594 484.132812 444.019531 C 484.132812 450.460938 491.128906 454.046875 496.839844 450.550781 C 498.402344 449.449219 499.785156 447.976562 499.785156 447.238281 C 499.785156 445.492188 496.65625 445.492188 495.179688 447.238281 C 493.800781 448.894531 490.484375 449.078125 488.917969 447.515625 C 488.273438 446.871094 487.816406 445.308594 487.816406 444.019531 C 487.816406 442.730469 488.273438 441.167969 488.917969 440.523438 C 490.484375 438.960938 493.890625 439.144531 495.550781 440.800781 C 497.300781 442.546875 499.785156 442.546875 499.785156 440.890625 C 499.785156 438.867188 495.273438 435.738281 492.511719 435.738281 C 491.222656 435.738281 489.289062 436.292969 488.273438 436.84375 Z M 488.273438 436.84375 " fill-opacity="1" fill-rule="nonzero"/><path fill="#ffffff" d="M 501.625 444.019531 L 501.625 452.300781 L 506.230469 452.300781 C 510.191406 452.300781 510.835938 452.023438 510.835938 450.460938 C 510.835938 448.988281 510.191406 448.621094 508.074219 448.621094 C 506.230469 448.621094 505.308594 448.160156 505.308594 447.238281 C 505.308594 446.503906 505.953125 445.859375 506.691406 445.859375 C 507.429688 445.859375 508.074219 445.03125 508.074219 444.019531 C 508.074219 443.007812 507.429688 442.179688 506.691406 442.179688 C 505.953125 442.179688 505.308594 441.535156 505.308594 440.800781 C 505.308594 439.878906 506.230469 439.417969 508.074219 439.417969 C 510.191406 439.417969 510.835938 439.050781 510.835938 437.578125 C 510.835938 436.015625 510.191406 435.738281 506.230469 435.738281 L 501.625 435.738281 Z M 501.625 444.019531 " fill-opacity="1" fill-rule="nonzero"/><path fill="#ffffff" d="M 511.941406 443.742188 C 512.214844 451.105469 512.398438 451.839844 514.058594 451.839844 C 515.714844 451.839844 515.898438 451.105469 516.175781 445.582031 C 516.453125 440.246094 516.636719 439.417969 518.203125 439.417969 C 520.871094 439.417969 521.515625 441.445312 519.304688 442.914062 C 516.542969 444.664062 516.726562 446.78125 519.492188 446.78125 C 522.070312 446.78125 524.648438 443.742188 524.648438 440.617188 C 524.648438 437.671875 521.238281 435.738281 516.082031 435.738281 L 511.664062 435.738281 Z M 511.941406 443.742188 " fill-opacity="1" fill-rule="nonzero"/><path fill="#ffffff" d="M 526.488281 444.019531 C 526.488281 451.65625 526.582031 452.300781 528.332031 452.300781 C 529.988281 452.300781 530.171875 451.65625 530.171875 445.859375 C 530.171875 440.707031 530.449219 439.417969 531.554688 439.417969 C 532.289062 439.417969 532.933594 438.59375 532.933594 437.578125 C 532.933594 436.109375 532.289062 435.738281 529.710938 435.738281 L 526.488281 435.738281 Z M 526.488281 444.019531 " fill-opacity="1" fill-rule="nonzero"/><path fill="#ffffff" d="M 546.007812 443.742188 C 546.285156 451.378906 546.378906 451.839844 548.402344 452.117188 C 549.785156 452.300781 550.429688 451.933594 550.429688 451.011719 C 550.429688 449.078125 554.941406 449.078125 556.324219 451.011719 C 556.96875 451.839844 558.347656 452.300781 559.546875 452.117188 C 561.480469 451.839844 561.203125 451.289062 555.863281 443.742188 C 551.441406 437.488281 549.691406 435.738281 547.945312 435.738281 C 545.824219 435.738281 545.734375 435.832031 546.007812 443.742188 Z M 553.191406 446.042969 C 553.191406 446.503906 552.546875 446.78125 551.8125 446.78125 C 550.890625 446.78125 550.429688 445.859375 550.429688 444.296875 C 550.429688 441.902344 550.523438 441.902344 551.8125 443.652344 C 552.546875 444.570312 553.191406 445.675781 553.191406 446.042969 Z M 553.191406 446.042969 " fill-opacity="1" fill-rule="nonzero"/><path fill="#ffffff" d="M 563.320312 444.019531 C 563.320312 451.65625 563.503906 452.300781 565.164062 452.300781 C 566.636719 452.300781 566.910156 451.5625 567.1875 447.054688 L 567.464844 441.71875 L 570.6875 447.054688 C 572.621094 450.277344 574.460938 452.300781 575.476562 452.300781 C 576.949219 452.300781 577.132812 451.378906 577.132812 444.019531 C 577.132812 436.382812 577.039062 435.738281 575.292969 435.738281 C 573.632812 435.738281 573.449219 436.382812 573.449219 440.984375 L 573.359375 446.320312 L 570.136719 440.984375 C 568.015625 437.578125 566.265625 435.738281 565.070312 435.738281 C 563.503906 435.738281 563.320312 436.476562 563.320312 444.019531 Z M 563.320312 444.019531 " fill-opacity="1" fill-rule="nonzero"/><path fill="#ffffff" d="M 578.976562 444.113281 L 578.976562 452.574219 L 584.222656 452.023438 C 590.851562 451.289062 593.0625 449.355469 593.0625 443.929688 C 593.0625 438.5 589.839844 435.738281 583.488281 435.738281 L 578.976562 435.738281 Z M 588 440.523438 C 588.644531 441.167969 589.101562 442.730469 589.101562 444.019531 C 589.101562 446.964844 587.539062 448.621094 584.777344 448.621094 C 582.84375 448.621094 582.65625 448.25 582.65625 444.019531 C 582.65625 439.789062 582.84375 439.417969 584.777344 439.417969 C 585.972656 439.417969 587.355469 439.878906 588 440.523438 Z M 588 440.523438 " fill-opacity="1" fill-rule="nonzero"/><path fill="#ffffff" d="M 606.046875 436.9375 C 605.769531 437.671875 605.679688 441.261719 605.863281 445.03125 C 606.136719 451.289062 606.324219 451.839844 608.257812 452.117188 C 610.191406 452.390625 610.28125 452.117188 610.28125 447.054688 L 610.28125 441.71875 L 613.320312 446.320312 L 616.265625 450.828125 L 616.726562 446.503906 L 617.1875 442.085938 L 620.226562 447.238281 C 622.621094 451.195312 623.726562 452.300781 625.566406 452.300781 C 628.238281 452.300781 628.421875 452.667969 621.515625 442.824219 C 617.648438 437.488281 615.898438 435.738281 614.242188 435.738281 C 613.042969 435.738281 612.125 436.199219 612.125 436.84375 C 612.125 437.671875 611.847656 437.671875 611.019531 436.84375 C 609.546875 435.371094 606.691406 435.464844 606.046875 436.9375 Z M 606.046875 436.9375 " fill-opacity="1" fill-rule="nonzero"/><path fill="#ffffff" d="M 629.617188 444.019531 L 629.617188 452.300781 L 634.222656 452.300781 C 638.183594 452.300781 638.828125 452.023438 638.828125 450.460938 C 638.828125 448.988281 638.183594 448.621094 636.066406 448.621094 C 634.222656 448.621094 633.300781 448.160156 633.300781 447.238281 C 633.300781 446.503906 633.945312 445.859375 634.683594 445.859375 C 635.421875 445.859375 636.066406 445.03125 636.066406 444.019531 C 636.066406 443.007812 635.421875 442.179688 634.683594 442.179688 C 633.945312 442.179688 633.300781 441.535156 633.300781 440.800781 C 633.300781 439.878906 634.222656 439.417969 636.066406 439.417969 C 638.183594 439.417969 638.828125 439.050781 638.828125 437.578125 C 638.828125 436.015625 638.183594 435.738281 634.222656 435.738281 L 629.617188 435.738281 Z M 629.617188 444.019531 " fill-opacity="1" fill-rule="nonzero"/><path fill="#ffffff" d="M 639.746094 437.578125 C 639.746094 438.777344 640.390625 439.417969 641.589844 439.417969 C 643.246094 439.417969 643.429688 440.0625 643.429688 445.859375 C 643.429688 451.65625 643.617188 452.300781 645.273438 452.300781 C 646.929688 452.300781 647.113281 451.65625 647.113281 445.953125 C 647.113281 440.433594 647.296875 439.605469 648.957031 439.144531 C 649.96875 438.867188 650.796875 438.039062 650.796875 437.210938 C 650.796875 436.015625 649.691406 435.738281 645.273438 435.738281 C 640.390625 435.738281 639.746094 435.925781 639.746094 437.578125 Z M 639.746094 437.578125 " fill-opacity="1" fill-rule="nonzero"/><path fill="#ffffff" d="M 651.71875 444.019531 C 651.71875 451.5625 651.902344 452.300781 653.46875 452.300781 C 654.941406 452.300781 655.308594 451.5625 655.585938 448.804688 C 655.863281 445.675781 656.136719 445.398438 658.625 445.398438 C 661.109375 445.398438 661.386719 445.675781 661.664062 448.804688 C 661.9375 451.5625 662.308594 452.300781 663.78125 452.300781 C 665.347656 452.300781 665.53125 451.5625 665.53125 444.019531 C 665.53125 436.382812 665.4375 435.738281 663.6875 435.738281 C 662.214844 435.738281 661.847656 436.382812 661.847656 439.050781 C 661.847656 442.179688 661.753906 442.273438 658.902344 441.996094 C 656.230469 441.71875 655.863281 441.351562 655.585938 438.683594 C 655.402344 436.476562 654.847656 435.738281 653.46875 435.738281 C 651.902344 435.738281 651.71875 436.476562 651.71875 444.019531 Z M 651.71875 444.019531 " fill-opacity="1" fill-rule="nonzero"/><path fill="#ffffff" d="M 671.515625 436.84375 C 668.570312 438.5 667.464844 440.523438 667.371094 444.113281 C 667.371094 450 673.816406 453.773438 679.25 451.011719 C 684.683594 448.160156 685.511719 442.730469 681.277344 438.40625 C 678.421875 435.554688 674.832031 435.003906 671.515625 436.84375 Z M 679.34375 441.351562 C 681.738281 445.675781 677.039062 450.550781 672.988281 447.976562 C 671.148438 446.78125 670.59375 442.457031 672.066406 440.707031 C 673.726562 438.683594 678.144531 439.050781 679.34375 441.351562 Z M 679.34375 441.351562 " fill-opacity="1" fill-rule="nonzero"/><path fill="#ffffff" d="M 685.789062 443.929688 L 685.789062 452.300781 L 688.917969 452.300781 C 693.15625 452.300781 697.574219 450.644531 698.679688 448.621094 C 700.152344 445.859375 699.785156 440.707031 697.941406 438.5 C 696.652344 436.84375 694.996094 436.292969 691.035156 435.925781 L 685.789062 435.554688 Z M 694.8125 440.523438 C 695.457031 441.167969 695.917969 442.730469 695.917969 444.019531 C 695.917969 446.964844 694.351562 448.621094 691.589844 448.621094 C 689.65625 448.621094 689.472656 448.25 689.472656 444.019531 C 689.472656 439.789062 689.65625 439.417969 691.589844 439.417969 C 692.785156 439.417969 694.167969 439.878906 694.8125 440.523438 Z M 694.8125 440.523438 " fill-opacity="1" fill-rule="nonzero"/><path fill="#ffffff" d="M 704.296875 438.132812 C 698.496094 443.007812 701.996094 451.839844 709.730469 451.839844 C 717.28125 451.839844 720.6875 443.742188 715.347656 438.40625 C 711.9375 435.003906 708.070312 434.910156 704.296875 438.132812 Z M 713.226562 440.523438 C 715.992188 443.285156 713.414062 448.621094 709.269531 448.621094 C 705.769531 448.621094 703.742188 443.007812 706.230469 440.523438 C 707.613281 439.144531 711.847656 439.144531 713.226562 440.523438 Z M 713.226562 440.523438 " fill-opacity="1" fill-rule="nonzero"/><path fill="#ffffff" d="M 719.859375 444.019531 L 719.859375 452.300781 L 724.460938 452.300781 C 728.421875 452.300781 729.066406 452.023438 729.066406 450.460938 C 729.066406 448.988281 728.421875 448.621094 726.304688 448.621094 L 723.542969 448.621094 L 723.542969 442.179688 C 723.542969 436.382812 723.355469 435.738281 721.699219 435.738281 C 719.949219 435.738281 719.859375 436.382812 719.859375 444.019531 Z M 719.859375 444.019531 " fill-opacity="1" fill-rule="nonzero"/><path fill="#ffffff" d="M 732.65625 438.40625 C 728.421875 442.730469 729.25 448.160156 734.683594 451.011719 C 739.933594 453.679688 746.5625 450 746.5625 444.386719 C 746.5625 440.15625 745.734375 438.59375 742.785156 437.121094 C 738.828125 435.003906 735.695312 435.464844 732.65625 438.40625 Z M 741.773438 440.523438 C 742.417969 441.167969 742.878906 442.730469 742.878906 444.019531 C 742.878906 448.4375 738.734375 450.183594 735.328125 447.054688 C 733.484375 445.398438 733.210938 443.742188 734.589844 441.167969 C 735.695312 439.144531 740.023438 438.777344 741.773438 440.523438 Z M 741.773438 440.523438 " fill-opacity="1" fill-rule="nonzero"/><path fill="#ffffff" d="M 753.375 436.660156 C 748.863281 438.40625 747.023438 444.480469 749.785156 448.34375 C 751.625 450.917969 756.964844 452.761719 759.175781 451.472656 C 760.097656 451.011719 761.753906 448.894531 762.953125 446.871094 L 765.070312 443.101562 L 760.375 443.101562 C 756.875 443.101562 755.769531 443.46875 755.769531 444.480469 C 755.769531 445.308594 756.597656 445.859375 757.796875 445.859375 C 759.730469 445.859375 759.730469 445.953125 758.253906 447.425781 C 756.507812 449.171875 754.480469 448.527344 752.640625 445.675781 C 751.074219 443.101562 753.375 439.417969 756.597656 439.417969 C 758.070312 439.417969 759.636719 439.789062 759.914062 440.339844 C 760.191406 440.800781 761.480469 441.261719 762.675781 441.261719 C 765.621094 441.261719 764.792969 438.960938 761.203125 437.121094 C 758.347656 435.554688 756.230469 435.464844 753.375 436.660156 Z M 753.375 436.660156 " fill-opacity="1" fill-rule="nonzero"/><path fill="#ffffff" d="M 769.582031 441.261719 C 771.054688 444.296875 772.34375 447.976562 772.34375 449.539062 C 772.34375 451.65625 772.710938 452.300781 774.1875 452.300781 C 775.660156 452.300781 776.027344 451.65625 776.027344 449.078125 C 776.027344 447.238281 777.039062 443.742188 778.328125 441.261719 C 781.09375 435.738281 781.09375 435.738281 778.699219 435.738281 C 777.410156 435.738281 776.394531 436.75 775.382812 439.144531 L 774 442.640625 L 772.621094 439.144531 C 771.515625 436.566406 770.6875 435.738281 769.027344 435.738281 L 766.820312 435.738281 Z M 769.582031 441.261719 " fill-opacity="1" fill-rule="nonzero"/><path fill="#ffffff" d="M 38.367188 438.777344 C 29.4375 444.753906 28.699219 456.808594 36.894531 463.984375 C 43.25 469.597656 51.261719 469.136719 57.429688 462.972656 C 63.230469 457.269531 63.96875 449.722656 59.363281 443.101562 C 55.035156 436.660156 44.628906 434.542969 38.367188 438.777344 Z M 53.195312 438.960938 C 54.667969 439.695312 56.875 441.71875 58.167969 443.375 C 64.980469 452.300781 59.546875 464.8125 48.128906 466.558594 C 39.65625 467.847656 31.371094 459.476562 32.292969 450.550781 C 33.304688 440.707031 44.539062 434.453125 53.195312 438.960938 Z M 53.195312 438.960938 " fill-opacity="1" fill-rule="nonzero"/><path fill="#ffffff" d="M 42.144531 444.941406 C 40.117188 446.964844 39.566406 453.957031 41.132812 458.097656 C 43.066406 463.0625 52.273438 461.683594 52.273438 456.441406 C 52.273438 454.601562 51.8125 454.140625 49.972656 454.140625 C 48.3125 454.140625 47.667969 454.601562 47.667969 455.980469 C 47.667969 456.992188 47.300781 457.820312 46.746094 457.820312 C 46.195312 457.820312 45.828125 455.242188 45.828125 451.839844 C 45.828125 448.4375 46.195312 445.859375 46.746094 445.859375 C 47.300781 445.859375 47.667969 446.871094 47.667969 448.160156 C 47.667969 450 48.128906 450.460938 49.972656 450.460938 C 51.90625 450.460938 52.273438 450 52.273438 447.699219 C 52.273438 443.101562 45.734375 441.351562 42.144531 444.941406 Z M 42.144531 444.941406 " fill-opacity="1" fill-rule="nonzero"/><path fill="#ffffff" d="M 139.75 453.21875 L 139.75 467.019531 L 167.097656 467.019531 L 167.28125 453.21875 L 167.375 439.417969 L 139.75 439.417969 Z M 139.75 453.21875 " fill-opacity="1" fill-rule="nonzero"/><path fill="#ffffff" d="M 262.21875 453.21875 L 262.21875 467.019531 L 289.839844 467.019531 L 289.839844 439.417969 L 262.21875 439.417969 Z M 262.21875 453.21875 " fill-opacity="1" fill-rule="nonzero"/><path fill="#ffffff" d="M 430.726562 466.101562 C 430.726562 466.742188 489.65625 467.019531 605.679688 467.019531 C 721.699219 467.019531 780.632812 466.742188 780.632812 466.101562 C 780.632812 465.457031 721.699219 465.179688 605.679688 465.179688 C 489.65625 465.179688 430.726562 465.457031 430.726562 466.101562 Z M 430.726562 466.101562 " fill-opacity="1" fill-rule="nonzero"/></svg>