<?xml version="1.0" standalone="no"?>
<!DOCTYPE svg PUBLIC "-//W3C//DTD SVG 20010904//EN"
 "http://www.w3.org/TR/2001/REC-SVG-20010904/DTD/svg10.dtd">
<svg version="1.0" xmlns="http://www.w3.org/2000/svg"
 width="30" height="30" viewBox="0 0 840.000000 859.000000"
 preserveAspectRatio="xMidYMid meet">

<g transform="translate(0.000000,859.000000) scale(0.100000,-0.100000)"
fill="#6c737d" stroke="none">
<path d="M3935 8460 c-166 -9 -261 -22 -452 -60 -437 -89 -871 -249 -1246
-461 -133 -75 -416 -265 -527 -354 -707 -566 -1194 -1319 -1416 -2191 -91
-359 -119 -591 -119 -989 0 -394 27 -622 116 -977 78 -312 162 -533 336 -889
l126 -257 -73 -213 c-345 -1017 -525 -1555 -641 -1913 -9 -28 -9 -28 27 -22
60 12 559 168 1727 539 l487 156 163 -76 c472 -220 865 -335 1362 -400 201
-26 759 -26 960 0 377 50 688 128 1010 254 959 377 1745 1099 2195 2018 221
453 345 890 392 1390 18 198 16 662 -5 845 -141 1245 -859 2361 -1942 3021
-145 88 -400 219 -550 281 -344 144 -816 265 -1120 287 -196 15 -643 21 -810
11z m525 -644 c640 -21 1271 -240 1830 -635 227 -161 505 -423 683 -646 412
-514 655 -1095 732 -1750 20 -168 23 -566 6 -730 -98 -921 -553 -1746 -1283
-2328 -493 -392 -1076 -637 -1728 -724 -192 -26 -669 -25 -860 1 -486 66 -877
199 -1318 448 -122 69 -147 79 -175 74 -17 -4 -223 -67 -457 -140 -651 -206
-830 -258 -830 -243 0 6 266 797 354 1052 l66 189 -68 106 c-126 194 -236 402
-336 633 -192 441 -287 1023 -246 1512 71 846 415 1593 1004 2180 507 505
1145 837 1843 959 170 30 483 56 593 49 19 -1 105 -5 190 -7z"/>
<path d="M2835 6251 c-128 -21 -258 -133 -383 -332 -95 -151 -142 -278 -162
-439 -47 -385 52 -692 380 -1185 434 -650 939 -1130 1493 -1419 346 -181 1006
-396 1214 -396 111 0 275 37 420 96 201 81 397 231 460 351 60 114 103 292
103 426 0 123 7 117 -286 265 -480 241 -672 322 -730 308 -30 -8 -85 -63 -222
-227 -209 -250 -251 -289 -308 -289 -78 0 -417 165 -624 303 -169 113 -445
369 -605 562 -84 100 -213 292 -250 370 l-28 59 22 42 c12 22 58 85 103 140
137 168 218 298 218 350 0 51 -316 814 -384 926 -53 87 -63 92 -234 94 -81 2
-170 -1 -197 -5z"/>
</g>
</svg>
