<?xml version="1.0" standalone="no"?>
<!DOCTYPE svg PUBLIC "-//W3C//DTD SVG 20010904//EN" "http://www.w3.org/TR/2001/REC-SVG-20010904/DTD/svg10.dtd">
<svg xmlns="http://www.w3.org/2000/svg" version="1.0" width="327" height="159" viewBox="0 0 320.000000 159.000000" preserveAspectRatio="xMidYMid meet">

<g transform="translate(0.000000,159.000000) rotate(3 0 0) scale(0.100000,-0.100000)" fill="#ffffff" stroke="none">
<path d="M2645 1425 c-334 -42 -1802 -218 -2255 -271 -118 -14 -225 -27 -237 -30 l-23 -4 0 -530 c0 -292 2 -530 5 -530 6 0 447 52 1250 149 363 43 900 108 1192 142 l533 64 0 528 0 527 -57 -1 c-32 -1 -215 -20 -408 -44z m335 -340 c0 -140 -3 -187 -12 -190 -7 -2 -39 -6 -70 -10 l-58 -6 -2 -187 -3 -187 -165 -22 c-91 -12 -175 -22 -187 -22 l-23 -1 0 186 0 185 -80 -7 -80 -7 0 187 c0 141 3 188 13 190 19 6 588 73 630 75 l37 1 0 -185z m-730 -273 l0 -378 -152 -18 c-84 -9 -172 -20 -195 -23 l-43 -6 0 377 c0 207 3 376 8 377 7 0 362 46 375 48 4 0 7 -169 7 -377z m-453 -428 c-2 -2 -154 -22 -338 -44 -184 -21 -350 -42 -370 -45 l-36 -5 -6 387 c-3 213 -4 389 -2 391 1 2 84 -49 184 -112 100 -64 186 -116 191 -116 5 0 91 72 192 160 l183 161 3 -387 c1 -213 1 -389 -1 -390z m-787 651 c0 -3 -61 -93 -136 -201 -77 -112 -133 -203 -130 -211 3 -8 63 -84 133 -169 71 -85 129 -158 131 -162 1 -5 -145 -25 -325 -46 -180 -21 -344 -41 -365 -44 l-38 -5 0 376 0 376 33 5 c17 3 131 17 252 32 121 14 265 31 320 39 126 16 125 16 125 10z"/>
</g>
</svg>