<?xml version="1.0" standalone="no"?>
<!DOCTYPE svg PUBLIC "-//W3C//DTD SVG 20010904//EN" "http://www.w3.org/TR/2001/REC-SVG-20010904/DTD/svg10.dtd">
<svg xmlns="http://www.w3.org/2000/svg" version="1.0" width="200" height="200" viewBox="0 0 500.000000 500.000000" preserveAspectRatio="xMidYMid meet">

<g transform="translate(0.000000,500.000000) scale(0.100000,-0.100000)" fill="#6c737d" stroke="none">
<path d="M2525 4319 c-3 -13 -6 -80 -8 -149 l-2 -125 38 -3 c34 -3 37 -1 37 22 0 47 9 56 60 56 61 0 76 17 84 101 9 97 -3 109 -116 116 -85 6 -87 5 -93 -18z m165 -19 c0 -5 -5 -10 -11 -10 -5 0 -7 5 -4 10 3 6 8 10 11 10 2 0 4 -4 4 -10z m-40 -70 c0 -15 -7 -20 -25 -20 -27 0 -28 1 -19 24 9 24 44 20 44 -4z"/>
<path d="M2155 4313 c-85 -17 -110 -39 -100 -93 11 -64 15 -69 76 -91 64 -23 63 -31 -3 -43 -40 -7 -46 -21 -32 -72 5 -20 7 -20 84 -5 70 13 80 18 90 42 8 18 9 42 3 70 -8 42 -11 45 -71 68 -67 26 -66 34 5 46 41 6 42 8 36 38 -10 54 -12 55 -88 40z"/>
<path d="M2858 4253 c-11 -27 -38 -86 -59 -132 -22 -46 -39 -87 -39 -91 0 -4 18 -12 39 -18 l39 -9 35 76 c35 74 36 75 36 39 1 -27 -3 -38 -14 -38 -8 0 -15 -2 -15 -4 0 -2 -7 -20 -15 -39 l-15 -36 38 -10 c21 -6 52 -13 69 -17 l30 -6 7 134 c4 73 9 141 12 150 4 13 -6 20 -47 32 -29 9 -59 16 -66 16 -8 0 -24 -21 -35 -47z"/>
<path d="M1919 4247 l-26 -12 44 -139 44 -138 32 6 c17 4 35 10 40 15 5 5 -11 69 -34 145 -45 144 -48 147 -100 123z"/>
<path d="M1778 4198 c-33 -12 -34 -18 -9 -108 11 -39 18 -70 16 -70 -2 0 -20 23 -41 52 -21 28 -40 46 -42 40 -5 -16 -55 -15 -70 0 -9 9 -12 9 -12 -1 0 -7 35 -61 78 -119 42 -58 80 -110 83 -115 9 -12 80 20 77 35 -2 8 5 12 20 10 12 -2 22 0 22 4 0 28 -76 284 -85 283 -5 0 -22 -5 -37 -11z"/>
<path d="M3132 4193 c-24 -22 -77 -147 -68 -162 4 -5 -1 -14 -10 -19 -10 -6 -14 -19 -12 -38 3 -25 13 -34 68 -61 36 -18 68 -32 73 -32 7 -1 47 58 47 70 0 3 -23 15 -51 26 l-50 22 21 41 c11 22 18 45 15 50 -10 17 34 21 64 6 45 -24 58 -20 71 20 12 37 11 44 -12 48 -7 2 -33 13 -58 24 -55 26 -72 27 -98 5z"/>
<path d="M3352 4046 c-26 -42 -36 -67 -29 -70 7 -3 3 -7 -8 -11 -20 -6 -75 -81 -75 -102 0 -10 103 -83 118 -83 5 0 21 13 36 29 l27 29 -35 22 c-36 21 -46 43 -26 55 6 3 10 0 10 -7 0 -7 15 -23 34 -35 l33 -22 32 33 32 33 -45 27 c-25 15 -46 31 -46 36 0 16 12 12 60 -20 l45 -30 30 31 30 30 -25 19 c-14 11 -28 20 -32 20 -4 0 -16 7 -26 16 -10 8 -36 26 -59 39 l-41 25 -40 -64z"/>
<path d="M1366 3921 c7 -33 -11 -51 -21 -22 -5 18 -35 20 -35 2 0 -11 179 -226 188 -226 4 0 20 10 36 22 32 26 39 13 -79 156 -44 53 -83 97 -87 97 -4 0 -5 -13 -2 -29z"/>
<path d="M3595 3890 c-36 -36 -44 -50 -31 -50 29 0 12 -25 -20 -28 -47 -6 -77 -42 -34 -42 33 0 23 -20 -21 -38 l-40 -17 26 -25 27 -25 44 48 c47 53 53 54 28 4 -12 -22 -13 -32 -5 -35 6 -2 9 -7 6 -11 -2 -5 6 -18 19 -30 l24 -22 43 21 44 22 -48 -49 -47 -49 30 -29 30 -29 91 89 c121 120 120 118 71 168 l-40 40 -56 -31 c-31 -16 -56 -29 -56 -27 0 1 12 28 26 59 28 63 23 86 -22 86 -25 0 -45 21 -26 28 12 4 7 22 -6 22 -4 0 -30 -22 -57 -50z m21 -152 c-19 -27 -21 -19 -4 18 7 14 14 21 16 15 2 -6 -4 -21 -12 -33z"/>
<path d="M1196 3791 c-52 -53 -57 -62 -51 -89 3 -17 22 -44 40 -61 34 -29 34 -29 82 -15 73 22 82 15 43 -29 l-33 -38 30 -30 30 -31 55 62 c64 70 65 84 10 142 l-34 36 -47 -14 c-81 -25 -90 -19 -46 26 l39 40 -30 30 -30 30 -58 -59z"/>
<path d="M2247 3624 c-148 -27 -327 -115 -348 -173 -6 -14 -39 -56 -75 -92 -67 -71 -71 -78 -52 -97 10 -10 23 -2 61 35 l50 48 -6 -39 c-5 -30 -21 -53 -72 -106 -38 -40 -65 -77 -65 -89 0 -12 3 -21 7 -21 4 0 33 26 65 57 32 31 60 55 62 52 7 -7 36 -295 36 -361 0 -70 -16 -107 -73 -165 -31 -33 -37 -43 -23 -43 10 0 25 -9 34 -20 11 -13 104 -50 267 -106 218 -75 254 -84 279 -75 40 14 42 9 11 -27 l-26 -31 23 -20 22 -21 48 47 48 47 0 -33 c0 -25 -8 -41 -35 -65 -19 -18 -35 -40 -35 -50 0 -10 -11 -27 -24 -37 -13 -10 -26 -29 -29 -41 -4 -13 -20 -31 -36 -41 -45 -26 -92 -68 -86 -76 2 -4 -16 -28 -41 -52 -25 -24 -55 -57 -67 -74 -12 -16 61 49 161 145 100 96 182 178 182 182 0 5 5 8 10 8 22 0 8 -51 -22 -86 -28 -32 -29 -35 -8 -21 23 15 28 15 65 -2 28 -12 46 -30 60 -57 11 -21 37 -70 59 -107 l39 -68 64 62 c60 60 64 62 80 46 16 -16 14 -21 -49 -85 -36 -37 -77 -91 -92 -120 l-26 -54 92 86 c51 47 98 86 105 86 8 0 16 -7 20 -17 5 -12 -38 -59 -166 -182 -142 -138 -173 -172 -178 -201 -5 -33 5 -25 158 126 269 264 289 281 341 295 35 10 53 10 71 2 21 -10 28 -8 48 13 20 21 25 23 38 10 12 -12 12 -18 1 -31 -30 -36 0 -20 59 30 47 41 70 55 93 55 29 0 30 -1 16 -17 -28 -33 -32 -46 -12 -35 43 23 77 74 88 132 l6 35 -46 -47 c-25 -27 -48 -48 -51 -48 -3 0 -3 11 -1 25 6 29 5 30 -27 9 -34 -22 -31 -12 7 32 l32 36 -104 -52 c-99 -50 -107 -52 -155 -44 -27 4 -77 8 -110 9 -44 0 -70 6 -96 23 -45 27 -69 30 -47 5 48 -57 15 -45 -83 30 -28 21 -80 52 -116 69 -60 28 -64 32 -48 44 11 8 16 21 12 33 -3 12 3 31 14 45 10 13 19 29 19 35 0 22 68 52 265 117 221 73 315 111 314 128 0 6 -14 22 -30 35 -28 22 -31 22 -48 7 -26 -24 -31 -20 -19 15 8 23 7 41 -2 69 -10 30 -10 65 -1 164 6 70 11 150 11 179 0 52 1 53 75 127 41 41 75 78 75 81 0 4 -7 10 -16 13 -9 4 -33 -11 -64 -40 -41 -39 -51 -44 -63 -32 -20 18 -5 54 41 94 32 28 35 33 23 48 -13 15 -16 15 -36 -4 -31 -29 -38 -25 -32 20 l5 40 -73 45 c-91 57 -218 109 -317 129 -99 21 -418 21 -531 0z m351 -157 c4 -20 -25 -34 -40 -19 -15 15 -1 44 19 40 10 -2 19 -11 21 -21z m-63 -18 c0 -7 -8 -15 -17 -17 -18 -3 -25 18 -11 32 10 10 28 1 28 -15z m195 -9 c0 -5 -2 -10 -4 -10 -3 0 -8 5 -11 10 -3 6 -1 10 4 10 6 0 11 -4 11 -10z m-576 -174 c-10 -8 -21 -12 -24 -10 -5 6 21 24 34 24 6 0 1 -6 -10 -14z m114 -75 c3 -8 -1 -12 -9 -9 -7 2 -15 10 -17 17 -3 8 1 12 9 9 7 -2 15 -10 17 -17z m250 -22 c3 -17 -23 -33 -39 -23 -5 3 -9 14 -9 25 0 15 6 20 22 17 13 -2 24 -10 26 -19z m40 -42 c2 -10 -3 -17 -12 -17 -18 0 -29 16 -21 31 9 14 29 6 33 -14z m-618 -187 c6 -11 7 -20 2 -20 -10 0 -32 21 -32 32 0 16 19 8 30 -12z m50 -330 c0 -5 -2 -10 -4 -10 -3 0 -8 5 -11 10 -3 6 -1 10 4 10 6 0 11 -4 11 -10z m714 -471 c-21 -23 -33 -24 -40 -4 -10 25 14 47 38 34 19 -10 19 -11 2 -30z m75 -33 c9 -10 1 -23 -36 -57 -46 -42 -48 -43 -51 -20 -3 16 7 34 29 57 37 38 42 40 58 20z"/>
<path d="M1079 3518 c-147 -204 -249 -441 -302 -703 -29 -145 -31 -457 -3 -605 57 -307 186 -593 365 -808 76 -91 94 -78 19 16 -171 215 -290 467 -350 742 -20 92 -22 133 -22 340 0 207 2 247 22 339 13 57 21 110 18 117 -3 7 0 19 7 26 7 7 26 49 41 93 54 151 209 432 262 476 18 14 18 29 1 29 -7 0 -33 -28 -58 -62z"/>
<path d="M3937 3448 c145 -217 243 -485 274 -751 16 -143 7 -405 -20 -532 -58 -274 -171 -515 -348 -742 -41 -54 -59 -83 -49 -83 9 0 43 34 76 76 367 461 475 1075 288 1639 -59 179 -221 475 -259 475 -13 0 -4 -20 38 -82z"/>
<path d="M1695 3181 l-60 -66 51 42 c59 49 77 69 72 81 -1 4 -30 -21 -63 -57z"/>
<path d="M3254 3178 c-80 -85 -84 -99 -6 -23 40 38 72 71 72 72 0 13 -23 -5 -66 -49z"/>
<path d="M3410 3145 c-8 -9 -8 -15 -2 -15 12 0 26 19 19 26 -2 2 -10 -2 -17 -11z"/>
<path d="M1797 3062 c-46 -46 -67 -75 -67 -92 0 -17 -23 -48 -72 -100 -40 -41 -9 -12 70 65 78 77 145 148 148 158 14 45 -16 33 -79 -31z"/>
<path d="M3248 3033 c-43 -43 -68 -77 -68 -91 0 -29 15 -28 37 4 10 15 38 48 61 75 24 26 42 55 40 64 -2 11 -23 -4 -70 -52z"/>
<path d="M1577 3063 c-4 -3 -7 -11 -7 -17 0 -6 5 -5 12 2 6 6 9 14 7 17 -3 3 -9 2 -12 -2z"/>
<path d="M1640 2983 l-65 -68 68 65 c62 60 72 70 64 70 -1 0 -32 -30 -67 -67z"/>
<path d="M3410 3015 c-13 -14 -21 -27 -18 -30 2 -3 15 6 28 20 13 14 21 27 18 30 -2 3 -15 -6 -28 -20z"/>
<path d="M1791 2891 c-186 -197 -253 -271 -244 -271 13 0 323 316 323 330 0 20 -14 9 -79 -59z"/>
<path d="M3255 2890 c-21 -22 -44 -40 -51 -40 -14 0 -24 -22 -24 -52 0 -18 4 -17 40 12 54 43 96 98 84 110 -6 6 -24 -5 -49 -30z"/>
<path d="M1807 2772 c-77 -81 -73 -103 4 -26 34 34 60 67 57 74 -2 6 -29 -15 -61 -48z"/>
<path d="M3314 2796 c-10 -8 -16 -17 -13 -20 3 -3 14 3 24 14 21 23 17 26 -11 6z"/>
<path d="M1510 2729 c0 -5 5 -7 10 -4 6 3 10 8 10 11 0 2 -4 4 -10 4 -5 0 -10 -5 -10 -11z"/>
<path d="M3246 2731 c-4 -7 -5 -15 -2 -18 9 -9 19 4 14 18 -4 11 -6 11 -12 0z"/>
<path d="M3329 2669 c-23 -19 -23 -20 -2 -10 12 6 25 16 28 21 10 16 -1 12 -26 -11z"/>
<path d="M3387 2409 c-3 -13 -1 -19 6 -16 15 5 22 37 9 37 -5 0 -12 -9 -15 -21z"/>
<path d="M1595 2330 c-3 -5 -1 -10 4 -10 6 0 11 5 11 10 0 6 -2 10 -4 10 -3 0 -8 -4 -11 -10z"/>
<path d="M3439 2314 c-23 -25 -27 -59 -10 -77 9 -9 61 48 61 68 0 7 -6 18 -13 24 -11 8 -19 5 -38 -15z"/>
<path d="M2336 2189 c-15 -12 -25 -23 -23 -26 8 -8 57 20 57 34 0 17 -3 17 -34 -8z"/>
<path d="M1630 2185 c-8 -9 -8 -15 -2 -15 12 0 26 19 19 26 -2 2 -10 -2 -17 -11z"/>
<path d="M1691 2136 c-21 -22 -22 -27 -9 -45 14 -20 15 -20 47 13 32 33 33 34 13 45 -27 14 -25 15 -51 -13z"/>
<path d="M2111 2123 c-1 -29 10 -29 35 -2 19 22 19 22 -3 11 -16 -9 -23 -9 -26 1 -3 6 -6 2 -6 -10z"/>
<path d="M1770 2065 c-42 -43 -39 -62 5 -31 11 7 35 17 52 20 41 9 51 25 28 43 -28 20 -37 17 -85 -32z"/>
<path d="M1963 2095 c-17 -7 -36 -22 -42 -33 -9 -17 -6 -17 36 5 32 16 50 20 58 13 8 -7 18 -4 30 10 18 20 17 20 -16 20 -19 -1 -48 -7 -66 -15z"/>
<path d="M2056 2071 c-4 -7 -5 -15 -2 -18 9 -9 19 4 14 18 -4 11 -6 11 -12 0z"/>
<path d="M2067 1991 c-48 -49 -87 -92 -87 -97 0 -11 158 145 171 169 5 9 8 17 6 17 -2 0 -42 -40 -90 -89z"/>
<path d="M1630 2050 c-8 -5 -11 -12 -7 -16 4 -4 13 -2 19 4 15 15 7 24 -12 12z"/>
<path d="M2275 1931 c-60 -63 -92 -101 -70 -84 22 17 58 50 80 72 21 23 45 41 52 41 11 0 59 79 51 84 -2 1 -52 -50 -113 -113z"/>
<path d="M2250 1965 c-30 -30 -49 -55 -44 -55 11 0 104 94 104 105 0 10 -6 5 -60 -50z"/>
<path d="M1909 1963 c-13 -16 -12 -17 4 -4 9 7 17 15 17 17 0 8 -8 3 -21 -13z"/>
<path d="M3459 1953 c-13 -16 -12 -17 4 -4 16 13 21 21 13 21 -2 0 -10 -8 -17 -17z"/>
<path d="M3035 1950 c-8 -13 5 -13 25 0 13 8 13 10 -2 10 -9 0 -20 -4 -23 -10z"/>
<path d="M2279 1803 l-34 -36 31 21 c36 24 61 52 47 52 -5 0 -25 -16 -44 -37z"/>
<path d="M2863 1758 c-46 -46 -81 -88 -79 -95 3 -7 -1 -13 -9 -13 -18 0 -45 -39 -45 -64 0 -16 17 -4 70 49 39 39 82 89 95 111 14 23 31 44 39 47 8 3 20 15 26 26 22 43 -13 20 -97 -61z"/>
<path d="M2497 1788 c-14 -18 -30 -43 -36 -55 -6 -13 -20 -23 -30 -23 -10 0 -29 -9 -43 -19 -19 -16 -24 -27 -20 -51 l5 -32 88 88 c84 83 108 124 75 124 -8 0 -26 -15 -39 -32z"/>
<path d="M1835 1760 c-10 -11 -14 -20 -8 -20 5 0 18 9 28 20 10 11 14 20 8 20 -5 0 -18 -9 -28 -20z"/>
<path d="M2288 1713 c-51 -52 -65 -72 -58 -83 8 -12 23 -2 80 55 38 38 69 74 67 79 -8 23 -26 12 -89 -51z"/>
<path d="M1939 1724 l-24 -27 28 18 c15 9 27 21 27 26 0 14 -5 11 -31 -17z"/>
<path d="M2473 1644 c-92 -85 -103 -100 -103 -130 0 -19 4 -34 9 -34 11 0 151 149 151 160 0 5 16 18 36 30 25 16 34 28 32 43 -2 11 -7 22 -13 23 -5 2 -56 -40 -112 -92z"/>
<path d="M2910 1645 c-19 -23 -7 -39 13 -17 10 11 14 23 9 26 -5 3 -15 -1 -22 -9z"/>
<path d="M2259 1563 c-45 -47 -50 -57 -35 -62 16 -6 16 -8 -3 -25 -12 -11 -21 -24 -21 -30 0 -6 32 21 70 59 46 45 70 77 70 92 0 37 -23 27 -81 -34z"/>
<path d="M2782 1547 c-45 -46 -62 -70 -62 -90 0 -15 4 -27 8 -27 4 0 36 29 71 64 57 57 62 67 55 90 l-9 26 -63 -63z"/>
<path d="M2623 1528 c-53 -53 -63 -69 -63 -98 l0 -35 66 66 c57 57 65 70 62 98 l-3 32 -62 -63z"/>
<path d="M2448 1482 c-73 -75 -95 -112 -65 -112 7 0 43 31 81 69 55 56 67 73 64 95 -3 27 -6 25 -80 -52z"/>
<path d="M2305 1470 c-27 -28 -36 -43 -29 -50 17 -17 63 5 68 32 4 20 5 58 1 58 0 0 -19 -18 -40 -40z"/>
<path d="M2787 1422 c-57 -57 -67 -73 -67 -102 l0 -34 41 39 c36 36 106 151 97 161 -2 2 -34 -27 -71 -64z"/>
<path d="M2679 1445 c-1 -5 -3 -17 -3 -25 -1 -8 -8 -14 -16 -12 -19 4 -110 -87 -103 -104 9 -25 27 -15 86 44 51 52 57 61 48 83 -5 13 -11 20 -12 14z"/>
<path d="M1258 1310 c-49 -60 -88 -113 -88 -118 0 -5 7 -15 15 -22 11 -9 21 -5 50 25 36 36 60 41 60 14 0 -8 14 -26 30 -41 43 -37 75 -28 125 34 29 37 40 60 40 84 0 19 -4 34 -10 34 -5 0 -20 10 -32 23 -31 31 -89 77 -97 76 -3 0 -45 -49 -93 -109z m131 -24 c14 -17 -9 -39 -33 -30 -19 7 -20 16 -4 32 15 15 23 15 37 -2z"/>
<path d="M3620 1399 c-14 -12 -33 -27 -42 -33 -16 -12 -16 -16 2 -64 28 -73 26 -77 -22 -44 -24 16 -48 32 -54 35 -6 4 -32 -9 -58 -29 l-46 -35 91 -120 c98 -127 90 -123 141 -81 16 14 16 16 -3 43 -14 19 -25 26 -37 22 -14 -6 -15 -4 -5 8 10 12 10 18 0 29 -6 7 5 3 25 -9 39 -23 48 -22 85 11 20 19 21 22 7 61 l-14 42 35 -40 c19 -22 34 -43 35 -47 0 -15 22 -8 51 16 l28 24 -90 116 c-49 64 -93 116 -97 116 -4 -1 -18 -10 -32 -21z"/>
<path d="M2465 1350 c-54 -55 -57 -60 -34 -60 34 0 102 69 97 99 -3 19 -10 15 -63 -39z"/>
<path d="M2300 1335 c-38 -39 -41 -45 -23 -45 23 0 73 52 73 76 0 20 -1 19 -50 -31z"/>
<path d="M2865 1310 c-10 -11 -14 -20 -9 -20 5 0 15 9 22 20 7 11 11 20 9 20 -2 0 -12 -9 -22 -20z"/>
<path d="M2670 1305 c-10 -12 -10 -15 4 -15 9 0 16 7 16 15 0 8 -2 15 -4 15 -2 0 -9 -7 -16 -15z"/>
<path d="M2831 1304 c0 -11 3 -14 6 -6 3 7 2 16 -1 19 -3 4 -6 -2 -5 -13z"/>
<path d="M1480 1139 c-52 -61 -96 -114 -98 -118 -1 -3 14 -15 34 -26 l36 -19 54 59 c29 33 53 57 54 53 1 -19 -21 -58 -33 -58 -16 0 -57 -41 -57 -57 0 -22 67 -52 97 -44 24 6 33 21 74 130 l48 122 -54 35 c-30 19 -55 34 -57 33 -2 0 -46 -50 -98 -110z m50 -28 c0 -13 -29 -35 -37 -28 -7 8 15 37 28 37 5 0 9 -4 9 -9z"/>
<path d="M3358 1214 c-16 -8 -28 -19 -28 -25 0 -6 -5 -7 -11 -3 -6 3 13 -37 41 -91 42 -78 50 -99 39 -106 -8 -5 -17 -9 -20 -9 -3 0 -28 41 -54 90 -26 50 -52 90 -57 90 -11 0 -68 -29 -68 -35 0 -2 25 -52 56 -110 58 -109 97 -152 115 -124 5 8 9 9 9 3 0 -6 27 3 60 20 85 45 86 57 10 198 -34 62 -63 114 -64 115 0 1 -13 -5 -28 -13z"/>
<path d="M1735 1117 c-7 -17 -34 -80 -58 -138 l-45 -107 40 -15 39 -16 16 35 c23 46 33 43 33 -12 0 -42 2 -46 35 -60 19 -7 37 -14 40 -14 3 0 5 22 5 49 0 40 4 51 19 56 27 8 74 120 66 157 -4 15 -7 28 -9 28 -1 0 -39 16 -84 35 l-83 35 -14 -33z m89 -96 c11 -17 -5 -39 -25 -34 -21 6 -21 6 -13 27 7 17 29 21 38 7z"/>
<path d="M3063 1075 c-38 -16 -38 -16 -16 -74 14 -35 18 -40 24 -25 6 17 8 17 17 -6 11 -28 4 -50 -9 -29 -16 25 -9 2 22 -81 25 -65 35 -80 48 -75 131 48 130 48 124 80 -9 57 -9 57 -50 40 -44 -18 -41 -22 -84 98 -17 48 -34 87 -38 87 -3 -1 -21 -7 -38 -15z"/>
<path d="M2000 1010 c-11 -22 -17 -46 -13 -56 4 -11 3 -15 -5 -10 -6 3 -13 2 -16 -3 -4 -5 -2 -12 4 -16 16 -10 12 -23 -9 -30 -20 -6 -37 -39 -32 -64 1 -7 -2 -10 -7 -7 -6 3 -15 -7 -20 -24 -12 -33 -11 -35 36 -45 32 -7 32 -6 68 69 35 73 51 96 41 59 -3 -10 -8 -35 -12 -55 -3 -22 -12 -38 -19 -38 -13 0 -26 -20 -26 -40 0 -4 21 -13 48 -19 26 -7 54 -14 63 -17 14 -4 17 9 23 83 3 49 9 118 12 154 l6 66 -32 7 c-19 3 -38 1 -46 -5 -11 -9 -14 -8 -14 4 0 8 -7 17 -15 21 -10 4 -21 -7 -35 -34z"/>
<path d="M2872 1019 c-27 -8 -31 -13 -27 -32 40 -158 42 -162 60 -162 25 0 30 -20 12 -45 -15 -22 -12 -60 5 -60 5 0 39 8 74 17 l64 17 0 44 0 44 -32 -7 c-18 -4 -37 -8 -43 -9 -5 0 -21 44 -35 98 -15 55 -30 101 -36 102 -5 1 -24 -2 -42 -7z"/>
<path d="M2673 988 c-54 -8 -63 -13 -63 -31 0 -26 31 -271 35 -275 1 -2 26 0 54 4 37 5 51 11 52 23 0 10 2 11 6 4 2 -7 13 -13 24 -13 16 0 19 7 19 43 l0 43 -40 -4 c-25 -3 -40 0 -40 7 0 6 10 11 23 11 55 0 67 10 67 54 l0 42 -50 -6 c-48 -6 -68 -1 -53 14 3 3 23 6 44 6 45 0 69 21 69 61 0 28 -2 29 -42 28 -24 -1 -71 -6 -105 -11z m37 -134 c0 -8 -4 -12 -10 -9 -5 3 -10 10 -10 16 0 5 5 9 10 9 6 0 10 -7 10 -16z"/>
<path d="M2370 830 c0 -147 0 -150 22 -150 12 0 30 8 40 17 18 16 18 16 12 -1 -6 -16 -5 -17 16 -6 16 9 25 9 33 1 18 -18 65 -13 77 8 16 30 12 107 -5 121 -14 12 -14 15 1 31 10 11 13 25 9 40 -5 14 -4 19 4 15 19 -12 12 20 -10 48 -19 25 -25 26 -110 26 l-89 0 0 -150z m130 55 c0 -8 -9 -15 -20 -15 -11 0 -20 7 -20 15 0 8 9 15 20 15 11 0 20 -7 20 -15z m0 -115 c0 -13 -7 -20 -19 -20 -22 0 -35 15 -26 30 12 19 45 11 45 -10z"/>
</g>
</svg>