<svg xmlns="http://www.w3.org/2000/svg" xmlns:xlink="http://www.w3.org/1999/xlink" width="500" zoomAndPan="magnify" viewBox="0 0 375 374.999991" height="500" preserveAspectRatio="xMidYMid meet" version="1.0"><defs><g/><clipPath id="e6576face2"><path d="M 164.042969 307.195312 L 186.226562 307.195312 L 186.226562 320.664062 L 164.042969 320.664062 Z M 164.042969 307.195312 " clip-rule="nonzero"/></clipPath><clipPath id="e3a5a167a2"><path d="M 170 315 L 180 315 L 180 320.664062 L 170 320.664062 Z M 170 315 " clip-rule="nonzero"/></clipPath><clipPath id="684083bdd0"><path d="M 53.246094 286.675781 L 178.859375 286.675781 L 178.859375 300.019531 L 53.246094 300.019531 Z M 53.246094 286.675781 " clip-rule="nonzero"/></clipPath><clipPath id="3534254850"><path d="M 38.632812 286.675781 L 164.246094 286.675781 L 164.246094 300.019531 L 38.632812 300.019531 Z M 38.632812 286.675781 " clip-rule="nonzero"/></clipPath><clipPath id="b5e602632b"><path d="M 33.707031 286.675781 L 159.320312 286.675781 L 159.320312 300.019531 L 33.707031 300.019531 Z M 33.707031 286.675781 " clip-rule="nonzero"/></clipPath><clipPath id="d3b28ce3bb"><path d="M 27.515625 286.675781 L 153.128906 286.675781 L 153.128906 300.019531 L 27.515625 300.019531 Z M 27.515625 286.675781 " clip-rule="nonzero"/></clipPath><clipPath id="6623752083"><path d="M 174.421875 286.675781 L 300.136719 286.675781 L 300.136719 300.144531 L 174.421875 300.144531 Z M 174.421875 286.675781 " clip-rule="nonzero"/></clipPath><clipPath id="4b5442e999"><path d="M 193.113281 286.675781 L 318.828125 286.675781 L 318.828125 300.144531 L 193.113281 300.144531 Z M 193.113281 286.675781 " clip-rule="nonzero"/></clipPath><clipPath id="8fabbe29c0"><path d="M 216.453125 286.675781 L 342.171875 286.675781 L 342.171875 300.144531 L 216.453125 300.144531 Z M 216.453125 286.675781 " clip-rule="nonzero"/></clipPath><clipPath id="453e17cfd7"><path d="M 189.214844 286.675781 L 314.933594 286.675781 L 314.933594 300.144531 L 189.214844 300.144531 Z M 189.214844 286.675781 " clip-rule="nonzero"/></clipPath><clipPath id="565020b3ea"><path d="M 125 168 L 223 168 L 223 230 L 125 230 Z M 125 168 " clip-rule="nonzero"/></clipPath><clipPath id="6be7573232"><path d="M 151.5625 54.332031 L 256.875 96.128906 L 198.707031 242.683594 L 93.398438 200.882812 Z M 151.5625 54.332031 " clip-rule="nonzero"/></clipPath><clipPath id="f96f5c77a8"><path d="M 151.5625 54.332031 L 256.875 96.128906 L 198.707031 242.683594 L 93.398438 200.882812 Z M 151.5625 54.332031 " clip-rule="nonzero"/></clipPath><clipPath id="101ff4048b"><path d="M 177 131 L 223 131 L 223 184 L 177 184 Z M 177 131 " clip-rule="nonzero"/></clipPath><clipPath id="b04df19246"><path d="M 151.5625 54.332031 L 256.875 96.128906 L 198.707031 242.683594 L 93.398438 200.882812 Z M 151.5625 54.332031 " clip-rule="nonzero"/></clipPath><clipPath id="800433e8ee"><path d="M 151.5625 54.332031 L 256.875 96.128906 L 198.707031 242.683594 L 93.398438 200.882812 Z M 151.5625 54.332031 " clip-rule="nonzero"/></clipPath><clipPath id="4d16bfe74a"><path d="M 128 67 L 226 67 L 226 129 L 128 129 Z M 128 67 " clip-rule="nonzero"/></clipPath><clipPath id="b1ed1190d6"><path d="M 151.5625 54.332031 L 256.875 96.128906 L 198.707031 242.683594 L 93.398438 200.882812 Z M 151.5625 54.332031 " clip-rule="nonzero"/></clipPath><clipPath id="654c34b6dc"><path d="M 151.5625 54.332031 L 256.875 96.128906 L 198.707031 242.683594 L 93.398438 200.882812 Z M 151.5625 54.332031 " clip-rule="nonzero"/></clipPath><clipPath id="239256d4f8"><path d="M 128 113 L 174 113 L 174 166 L 128 166 Z M 128 113 " clip-rule="nonzero"/></clipPath><clipPath id="23bc288b60"><path d="M 151.5625 54.332031 L 256.875 96.128906 L 198.707031 242.683594 L 93.398438 200.882812 Z M 151.5625 54.332031 " clip-rule="nonzero"/></clipPath><clipPath id="a892c00211"><path d="M 151.5625 54.332031 L 256.875 96.128906 L 198.707031 242.683594 L 93.398438 200.882812 Z M 151.5625 54.332031 " clip-rule="nonzero"/></clipPath></defs><g clip-path="url(#e6576face2)"><path fill="#ffffff" d="M 164.042969 320.652344 L 168.9375 320.652344 L 175.136719 313.140625 L 181.335938 320.652344 L 186.226562 320.652344 L 175.136719 307.207031 Z M 164.042969 320.652344 " fill-opacity="1" fill-rule="nonzero"/></g><g clip-path="url(#e3a5a167a2)"><path fill="#ffffff" d="M 170.855469 320.652344 L 179.417969 320.652344 L 175.136719 315.460938 Z M 170.855469 320.652344 " fill-opacity="1" fill-rule="nonzero"/></g><g fill="#ffffff" fill-opacity="1"><g transform="translate(25.401206, 279.600481)"><g><path d="M 2.234375 0 L 2.234375 -22.328125 L 7.34375 -22.328125 L 7.34375 -13.5 L 9.859375 -13.5 L 14.234375 -22.328125 L 19.140625 -22.328125 L 19.140625 -20.765625 L 14.265625 -11.484375 L 19.59375 -1.5625 L 19.59375 0 L 14.546875 0 L 9.953125 -9.1875 L 7.34375 -9.1875 L 7.34375 0 Z M 2.234375 0 "/></g></g></g><g fill="#ffffff" fill-opacity="1"><g transform="translate(42.437736, 279.600481)"><g><path d="M 2.234375 0 L 2.234375 -22.328125 L 15.25 -22.328125 L 18.703125 -18.890625 L 18.703125 -10.9375 L 15.921875 -8.171875 L 19.265625 -1.53125 L 19.265625 0 L 14.359375 0 L 10.84375 -7.3125 L 7.34375 -7.3125 L 7.34375 0 Z M 7.34375 -11.421875 L 12.46875 -11.421875 L 13.59375 -12.578125 L 13.59375 -17.0625 L 12.46875 -18.21875 L 7.34375 -18.21875 Z M 7.34375 -11.421875 "/></g></g></g><g fill="#ffffff" fill-opacity="1"><g transform="translate(59.984731, 279.600481)"><g><path d="M 14.171875 -22.328125 L 20.09375 -1.5625 L 20.09375 0 L 15.15625 0 L 13.9375 -4.6875 L 6.640625 -4.6875 L 5.421875 0 L 0.609375 0 L 0.609375 -1.5625 L 6.578125 -22.328125 Z M 7.75 -8.9375 L 12.859375 -8.9375 L 10.65625 -17.609375 L 9.984375 -17.609375 Z M 7.75 -8.9375 "/></g></g></g><g fill="#ffffff" fill-opacity="1"><g transform="translate(77.499822, 279.600481)"><g><path d="M 5.78125 0 L 0.609375 -20.796875 L 0.609375 -22.328125 L 5.484375 -22.328125 L 9.46875 -4.875 L 10.3125 -4.875 L 14.328125 -22.328125 L 19.046875 -22.328125 L 19.046875 -20.796875 L 13.875 0 Z M 5.78125 0 "/></g></g></g><g fill="#ffffff" fill-opacity="1"><g transform="translate(93.962075, 279.600481)"><g/></g></g><g fill="#ffffff" fill-opacity="1"><g transform="translate(99.225947, 279.600481)"><g><path d="M 2.234375 0 L 2.234375 -22.328125 L 9.921875 -22.328125 L 13.203125 -9.09375 L 13.84375 -9.09375 L 17.140625 -22.328125 L 24.734375 -22.328125 L 24.734375 0 L 19.8125 0 L 19.8125 -15.765625 L 19.265625 -15.765625 L 15.984375 -2.9375 L 10.96875 -2.9375 L 7.6875 -15.765625 L 7.140625 -15.765625 L 7.140625 0 Z M 2.234375 0 "/></g></g></g><g fill="#ffffff" fill-opacity="1"><g transform="translate(122.994267, 279.600481)"><g><path d="M 14.171875 -22.328125 L 20.09375 -1.5625 L 20.09375 0 L 15.15625 0 L 13.9375 -4.6875 L 6.640625 -4.6875 L 5.421875 0 L 0.609375 0 L 0.609375 -1.5625 L 6.578125 -22.328125 Z M 7.75 -8.9375 L 12.859375 -8.9375 L 10.65625 -17.609375 L 9.984375 -17.609375 Z M 7.75 -8.9375 "/></g></g></g><g fill="#ffffff" fill-opacity="1"><g transform="translate(140.509362, 279.600481)"><g><path d="M 5.640625 0 L 1.84375 -3.796875 L 1.84375 -18.53125 L 5.640625 -22.328125 L 18.0625 -22.328125 L 18.0625 -18.0625 L 8.296875 -18.0625 L 6.953125 -16.75 L 6.953125 -5.578125 L 8.296875 -4.28125 L 13.203125 -4.28125 L 14.515625 -5.546875 L 14.515625 -9.4375 L 10.109375 -9.4375 L 10.109375 -13.34375 L 19.59375 -13.34375 L 19.59375 -3.796875 L 15.765625 0 Z M 5.640625 0 "/></g></g></g><g fill="#ffffff" fill-opacity="1"><g transform="translate(158.247783, 279.600481)"><g><path d="M 14.171875 -22.328125 L 20.09375 -1.5625 L 20.09375 0 L 15.15625 0 L 13.9375 -4.6875 L 6.640625 -4.6875 L 5.421875 0 L 0.609375 0 L 0.609375 -1.5625 L 6.578125 -22.328125 Z M 7.75 -8.9375 L 12.859375 -8.9375 L 10.65625 -17.609375 L 9.984375 -17.609375 Z M 7.75 -8.9375 "/></g></g></g><g fill="#eb1d27" fill-opacity="1"><g transform="translate(181.718121, 279.600481)"><g><path d="M -0.3125 0 L 0.21875 -2.390625 L 3.484375 -2.390625 L 7.53125 -19.9375 L 4.28125 -19.9375 L 4.84375 -22.328125 L 14.265625 -22.328125 L 13.6875 -19.9375 L 10.40625 -19.9375 L 6.34375 -2.390625 L 9.640625 -2.390625 L 9.09375 0 Z M -0.3125 0 "/></g></g></g><g fill="#eb1d27" fill-opacity="1"><g transform="translate(192.43776, 279.600481)"><g><path d="M 0.671875 0 L 5.84375 -22.328125 L 10.71875 -22.328125 L 13.71875 -2.875 L 14.328125 -2.875 L 18.828125 -22.328125 L 21.46875 -22.328125 L 16.296875 0 L 11.421875 0 L 8.421875 -19.46875 L 7.8125 -19.46875 L 3.3125 0 Z M 0.671875 0 "/></g></g></g><g fill="#eb1d27" fill-opacity="1"><g transform="translate(211.388683, 279.600481)"><g><path d="M 0.0625 0 L 0.640625 -2.546875 L 10.46875 -2.546875 L 12.3125 -4.046875 L 13.40625 -8.75 L 12.3125 -10.140625 L 5.484375 -10.140625 L 2.9375 -13.46875 L 4.34375 -19.4375 L 7.90625 -22.328125 L 18.734375 -22.328125 L 18.125 -19.78125 L 8.78125 -19.78125 L 6.921875 -18.28125 L 5.96875 -14.109375 L 7.046875 -12.703125 L 13.875 -12.703125 L 16.4375 -9.375 L 14.9375 -2.90625 L 11.359375 0 Z M 0.0625 0 "/></g></g></g><g fill="#eb1d27" fill-opacity="1"><g transform="translate(227.181091, 279.600481)"><g><path d="M 4.375 0 L 8.9375 -19.78125 L 2.71875 -19.78125 L 3.3125 -22.328125 L 18.640625 -22.328125 L 18.03125 -19.78125 L 11.8125 -19.78125 L 7.25 0 Z M 4.375 0 "/></g></g></g><g fill="#eb1d27" fill-opacity="1"><g transform="translate(241.218769, 279.600481)"><g><path d="M -0.3125 0 L 0.21875 -2.390625 L 3.484375 -2.390625 L 7.53125 -19.9375 L 4.28125 -19.9375 L 4.84375 -22.328125 L 14.265625 -22.328125 L 13.6875 -19.9375 L 10.40625 -19.9375 L 6.34375 -2.390625 L 9.640625 -2.390625 L 9.09375 0 Z M -0.3125 0 "/></g></g></g><g fill="#eb1d27" fill-opacity="1"><g transform="translate(251.93841, 279.600481)"><g><path d="M 0.671875 0 L 5.84375 -22.328125 L 10.71875 -22.328125 L 13.71875 -2.875 L 14.328125 -2.875 L 18.828125 -22.328125 L 21.46875 -22.328125 L 16.296875 0 L 11.421875 0 L 8.421875 -19.46875 L 7.8125 -19.46875 L 3.3125 0 Z M 0.671875 0 "/></g></g></g><g fill="#eb1d27" fill-opacity="1"><g transform="translate(270.88933, 279.600481)"><g><path d="M 4.140625 0 L 1.1875 -3.859375 L 4.65625 -18.890625 L 8.90625 -22.328125 L 18.859375 -22.328125 L 18.25 -19.78125 L 9.796875 -19.78125 L 7.25 -17.703125 L 4.21875 -4.53125 L 5.71875 -2.546875 L 14.265625 -2.546875 L 13.6875 0 Z M 4.140625 0 "/></g></g></g><g fill="#eb1d27" fill-opacity="1"><g transform="translate(285.788417, 279.600481)"><g><path d="M 4.375 0 L 8.9375 -19.78125 L 2.71875 -19.78125 L 3.3125 -22.328125 L 18.640625 -22.328125 L 18.03125 -19.78125 L 11.8125 -19.78125 L 7.25 0 Z M 4.375 0 "/></g></g></g><g fill="#eb1d27" fill-opacity="1"><g transform="translate(299.826095, 279.600481)"><g><path d="M -0.3125 0 L 0.21875 -2.390625 L 3.484375 -2.390625 L 7.53125 -19.9375 L 4.28125 -19.9375 L 4.84375 -22.328125 L 14.265625 -22.328125 L 13.6875 -19.9375 L 10.40625 -19.9375 L 6.34375 -2.390625 L 9.640625 -2.390625 L 9.09375 0 Z M -0.3125 0 "/></g></g></g><g fill="#eb1d27" fill-opacity="1"><g transform="translate(310.545736, 279.600481)"><g><path d="M 4.625 0 L 3.609375 -21.21875 L 3.859375 -22.328125 L 6.4375 -22.328125 L 7.203125 -2.875 L 7.9375 -2.875 L 17.765625 -22.328125 L 20.578125 -22.328125 L 20.328125 -21.21875 L 9.375 0 Z M 4.625 0 "/></g></g></g><g fill="#eb1d27" fill-opacity="1"><g transform="translate(327.07194, 279.600481)"><g><path d="M 0.671875 0 L 5.84375 -22.328125 L 19.40625 -22.328125 L 18.796875 -19.78125 L 8.109375 -19.78125 L 6.4375 -12.546875 L 14.578125 -12.546875 L 13.96875 -9.984375 L 5.84375 -9.984375 L 4.109375 -2.546875 L 15.0625 -2.546875 L 14.484375 0 Z M 0.671875 0 "/></g></g></g><g clip-path="url(#684083bdd0)"><path fill="#cd0707" d="M 128.304688 300.011719 L 134.824219 286.550781 L 129.527344 286.550781 L 123.011719 300.011719 Z M 121.171875 300.011719 L 127.691406 286.550781 L 122.398438 286.550781 L 115.878906 300.011719 Z M 135.851562 300.011719 L 142.371094 286.550781 L 137.078125 286.550781 L 130.558594 300.011719 Z M 157.664062 300.011719 L 164.183594 286.550781 L 158.890625 286.550781 L 152.371094 300.011719 Z M 172.34375 300.011719 L 178.863281 286.550781 L 173.570312 286.550781 L 167.050781 300.011719 Z M 142.984375 300.011719 L 149.503906 286.550781 L 144.210938 286.550781 L 137.691406 300.011719 Z M 165.210938 300.011719 L 171.730469 286.550781 L 166.4375 286.550781 L 159.917969 300.011719 Z M 113.4375 300.011719 L 119.742188 286.550781 L 59.453125 286.550781 L 53.148438 300.011719 Z M 150.53125 300.011719 L 157.050781 286.550781 L 151.757812 286.550781 L 145.238281 300.011719 Z M 150.53125 300.011719 " fill-opacity="1" fill-rule="nonzero"/></g><g clip-path="url(#3534254850)"><path fill="#042d8b" d="M 113.6875 300.011719 L 120.207031 286.550781 L 114.914062 286.550781 L 108.394531 300.011719 Z M 106.554688 300.011719 L 113.074219 286.550781 L 107.78125 286.550781 L 101.261719 300.011719 Z M 121.234375 300.011719 L 127.753906 286.550781 L 122.460938 286.550781 L 115.941406 300.011719 Z M 143.046875 300.011719 L 149.566406 286.550781 L 144.273438 286.550781 L 137.753906 300.011719 Z M 157.726562 300.011719 L 164.246094 286.550781 L 158.953125 286.550781 L 152.433594 300.011719 Z M 128.367188 300.011719 L 134.886719 286.550781 L 129.59375 286.550781 L 123.074219 300.011719 Z M 150.59375 300.011719 L 157.113281 286.550781 L 151.820312 286.550781 L 145.300781 300.011719 Z M 98.820312 300.011719 L 105.128906 286.550781 L 44.839844 286.550781 L 38.53125 300.011719 Z M 135.914062 300.011719 L 142.433594 286.550781 L 137.140625 286.550781 L 130.621094 300.011719 Z M 135.914062 300.011719 " fill-opacity="1" fill-rule="nonzero"/></g><g clip-path="url(#b5e602632b)"><path fill="#042d8b" d="M 108.761719 300.011719 L 115.28125 286.550781 L 109.988281 286.550781 L 103.46875 300.011719 Z M 101.628906 300.011719 L 108.152344 286.550781 L 102.855469 286.550781 L 96.335938 300.011719 Z M 116.3125 300.011719 L 122.832031 286.550781 L 117.535156 286.550781 L 111.015625 300.011719 Z M 138.125 300.011719 L 144.644531 286.550781 L 139.347656 286.550781 L 132.832031 300.011719 Z M 152.800781 300.011719 L 159.324219 286.550781 L 154.027344 286.550781 L 147.511719 300.011719 Z M 123.445312 300.011719 L 129.964844 286.550781 L 124.667969 286.550781 L 118.148438 300.011719 Z M 145.667969 300.011719 L 152.191406 286.550781 L 146.894531 286.550781 L 140.378906 300.011719 Z M 93.894531 300.011719 L 100.203125 286.550781 L 39.914062 286.550781 L 33.605469 300.011719 Z M 130.988281 300.011719 L 137.511719 286.550781 L 132.214844 286.550781 L 125.699219 300.011719 Z M 130.988281 300.011719 " fill-opacity="1" fill-rule="nonzero"/></g><g clip-path="url(#d3b28ce3bb)"><path fill="#042d8b" d="M 102.570312 300.011719 L 109.09375 286.550781 L 103.796875 286.550781 L 97.28125 300.011719 Z M 95.4375 300.011719 L 101.960938 286.550781 L 96.667969 286.550781 L 90.148438 300.011719 Z M 110.121094 300.011719 L 116.640625 286.550781 L 111.347656 286.550781 L 104.828125 300.011719 Z M 131.933594 300.011719 L 138.453125 286.550781 L 133.160156 286.550781 L 126.640625 300.011719 Z M 146.613281 300.011719 L 153.132812 286.550781 L 147.839844 286.550781 L 141.320312 300.011719 Z M 117.253906 300.011719 L 123.773438 286.550781 L 118.480469 286.550781 L 111.960938 300.011719 Z M 139.480469 300.011719 L 146 286.550781 L 140.707031 286.550781 L 134.1875 300.011719 Z M 87.707031 300.011719 L 94.011719 286.550781 L 33.722656 286.550781 L 27.417969 300.011719 Z M 124.800781 300.011719 L 131.320312 286.550781 L 126.027344 286.550781 L 119.507812 300.011719 Z M 124.800781 300.011719 " fill-opacity="1" fill-rule="nonzero"/></g><g clip-path="url(#6623752083)"><path fill="#042d8b" d="M 224.976562 286.683594 L 218.457031 300.144531 L 223.75 300.144531 L 230.269531 286.683594 Z M 232.109375 286.683594 L 225.589844 300.144531 L 230.882812 300.144531 L 237.402344 286.683594 Z M 217.429688 286.683594 L 210.910156 300.144531 L 216.203125 300.144531 L 222.722656 286.683594 Z M 195.617188 286.683594 L 189.097656 300.144531 L 194.390625 300.144531 L 200.910156 286.683594 Z M 180.9375 286.683594 L 174.417969 300.144531 L 179.710938 300.144531 L 186.230469 286.683594 Z M 210.296875 286.683594 L 203.777344 300.144531 L 209.070312 300.144531 L 215.589844 286.683594 Z M 188.070312 286.683594 L 181.550781 300.144531 L 186.84375 300.144531 L 193.363281 286.683594 Z M 239.84375 286.683594 L 233.535156 300.144531 L 293.824219 300.144531 L 300.132812 286.683594 Z M 202.75 286.683594 L 196.230469 300.144531 L 201.523438 300.144531 L 208.042969 286.683594 Z M 202.75 286.683594 " fill-opacity="1" fill-rule="nonzero"/></g><g clip-path="url(#4b5442e999)"><path fill="#cd0707" d="M 243.667969 286.683594 L 237.148438 300.144531 L 242.441406 300.144531 L 248.960938 286.683594 Z M 250.800781 286.683594 L 244.28125 300.144531 L 249.574219 300.144531 L 256.09375 286.683594 Z M 236.121094 286.683594 L 229.601562 300.144531 L 234.894531 300.144531 L 241.414062 286.683594 Z M 214.308594 286.683594 L 207.789062 300.144531 L 213.082031 300.144531 L 219.601562 286.683594 Z M 199.628906 286.683594 L 193.109375 300.144531 L 198.402344 300.144531 L 204.921875 286.683594 Z M 228.988281 286.683594 L 222.46875 300.144531 L 227.761719 300.144531 L 234.28125 286.683594 Z M 206.761719 286.683594 L 200.242188 300.144531 L 205.535156 300.144531 L 212.054688 286.683594 Z M 258.535156 286.683594 L 252.226562 300.144531 L 312.515625 300.144531 L 318.824219 286.683594 Z M 221.441406 286.683594 L 214.921875 300.144531 L 220.214844 300.144531 L 226.734375 286.683594 Z M 221.441406 286.683594 " fill-opacity="1" fill-rule="nonzero"/></g><g clip-path="url(#8fabbe29c0)"><path fill="#cd0707" d="M 267.011719 286.683594 L 260.492188 300.144531 L 265.785156 300.144531 L 272.304688 286.683594 Z M 274.144531 286.683594 L 267.625 300.144531 L 272.917969 300.144531 L 279.4375 286.683594 Z M 259.464844 286.683594 L 252.945312 300.144531 L 258.238281 300.144531 L 264.757812 286.683594 Z M 237.652344 286.683594 L 231.132812 300.144531 L 236.425781 300.144531 L 242.945312 286.683594 Z M 222.972656 286.683594 L 216.453125 300.144531 L 221.746094 300.144531 L 228.265625 286.683594 Z M 252.332031 286.683594 L 245.8125 300.144531 L 251.105469 300.144531 L 257.625 286.683594 Z M 230.105469 286.683594 L 223.585938 300.144531 L 228.878906 300.144531 L 235.398438 286.683594 Z M 281.878906 286.683594 L 275.570312 300.144531 L 335.859375 300.144531 L 342.167969 286.683594 Z M 244.785156 286.683594 L 238.265625 300.144531 L 243.558594 300.144531 L 250.078125 286.683594 Z M 244.785156 286.683594 " fill-opacity="1" fill-rule="nonzero"/></g><g clip-path="url(#453e17cfd7)"><path fill="#cd0707" d="M 239.773438 286.683594 L 233.253906 300.144531 L 238.546875 300.144531 L 245.066406 286.683594 Z M 246.90625 286.683594 L 240.382812 300.144531 L 245.679688 300.144531 L 252.199219 286.683594 Z M 232.226562 286.683594 L 225.703125 300.144531 L 231 300.144531 L 237.519531 286.683594 Z M 210.414062 286.683594 L 203.894531 300.144531 L 209.1875 300.144531 L 215.707031 286.683594 Z M 195.734375 286.683594 L 189.214844 300.144531 L 194.507812 300.144531 L 201.027344 286.683594 Z M 225.09375 286.683594 L 218.570312 300.144531 L 223.867188 300.144531 L 230.386719 286.683594 Z M 202.867188 286.683594 L 196.347656 300.144531 L 201.640625 300.144531 L 208.160156 286.683594 Z M 254.640625 286.683594 L 248.332031 300.144531 L 308.621094 300.144531 L 314.929688 286.683594 Z M 217.546875 286.683594 L 211.027344 300.144531 L 216.320312 300.144531 L 222.839844 286.683594 Z M 217.546875 286.683594 " fill-opacity="1" fill-rule="nonzero"/></g><g clip-path="url(#565020b3ea)"><g clip-path="url(#6be7573232)"><g clip-path="url(#f96f5c77a8)"><path fill="#244eb2" d="M 182.300781 168.042969 L 125.007812 213.382812 L 164.773438 229.164062 L 222.066406 183.824219 L 182.300781 168.042969 " fill-opacity="1" fill-rule="nonzero"/></g></g></g><g clip-path="url(#101ff4048b)"><g clip-path="url(#b04df19246)"><g clip-path="url(#800433e8ee)"><path fill="#093cb2" d="M 216.761719 147.679688 L 177 131.898438 L 182.300781 168.042969 L 222.066406 183.824219 L 216.761719 147.679688 " fill-opacity="1" fill-rule="nonzero"/></g></g></g><g clip-path="url(#4d16bfe74a)"><g clip-path="url(#b1ed1190d6)"><g clip-path="url(#654c34b6dc)"><path fill="#eb1d27" d="M 167.96875 128.972656 L 225.261719 83.632812 L 185.5 67.851562 L 128.207031 113.191406 L 167.96875 128.972656 " fill-opacity="1" fill-rule="nonzero"/></g></g></g><g clip-path="url(#239256d4f8)"><g clip-path="url(#23bc288b60)"><g clip-path="url(#a892c00211)"><path fill="#be1c2d" d="M 133.507812 149.332031 L 173.273438 165.117188 L 167.96875 128.972656 L 128.207031 113.191406 L 133.507812 149.332031 " fill-opacity="1" fill-rule="nonzero"/></g></g></g></svg>